#N canvas 1303 694 1431 1377 12;
#X obj 195 744 osc~;
#X obj 195 623 +~;
#X obj 289 362 osc~;
#X obj 196 269 sig~;
#X obj 197 240 mtof;
#X obj 202 1066 *~;
#X text 338 331 modulator frequency;
#X text 346 486 modulator index;
#X text 50 267 carrier frequency;
#X obj 292 580 *~;
#X obj 549 478 c_ead 20 400;
#X obj 295 327 * 12;
#X obj 224 941 c_ead 5 2000;
#X obj 199 44 inlet;
#X text 655 477 modulator envelope;
#X obj 202 1264 outlet~;
#X obj 196 706 +~;
#X obj 234 654 osc~ 5;
#X text 293 686 vibrato;
#X obj 341 367 r modindex;
#X obj 234 678 *~ 2;
#X obj 671 416 random 200;
#X obj 671 440 + 200;
#X obj 577 415 random 20;
#X obj 577 441 + 10;
#X obj 557 378 t b b b;
#X obj 227 831 t b b;
#X obj 269 857 t b b;
#X obj 269 884 random 10;
#X obj 269 910 + 2;
#X obj 363 885 random 1000;
#X obj 698 594 noise~;
#X obj 698 618 bp~ 800 2;
#X obj 694 721 *~;
#X obj 944 629 t b b;
#X obj 944 656 random 10;
#X obj 944 682 + 2;
#X obj 899 713 c_ead 5 200;
#X obj 1040 652 random 100;
#X obj 902 603 t b b b;
#X obj 1163 641 random 300;
#X obj 1163 665 + 1000;
#X obj 1038 681 + 20;
#X obj 338 455 +;
#X obj 199 68 t f f b b b b;
#X obj 291 97 s \$0-hit;
#X obj 552 345 r \$0-hit;
#X obj 902 569 r \$0-hit;
#X obj 226 807 r \$0-hit;
#X text 698 541 mallet noise;
#X obj 429 380 r \$0-hit;
#X obj 429 428 t b f;
#X obj 287 487 *~ 200;
#X obj 341 391 f 200;
#X obj 429 404 random 300;
#X obj 438 1120 / 127;
#X floatatom 199 92 5 0 0 0 - - -;
#X obj 438 1149 * -1;
#X obj 438 1173 + 1;
#X obj 435 1201 clip 0 1;
#X obj 207 1233 *~;
#X obj 363 909 + 2000;
#X obj 698 642 *~ 0.2;
#X connect 0 0 5 0;
#X connect 1 0 16 0;
#X connect 2 0 52 0;
#X connect 3 0 1 0;
#X connect 4 0 3 0;
#X connect 5 0 60 0;
#X connect 9 0 1 1;
#X connect 10 0 9 1;
#X connect 11 0 2 0;
#X connect 12 0 5 1;
#X connect 13 0 44 0;
#X connect 16 0 0 0;
#X connect 17 0 20 0;
#X connect 19 0 53 0;
#X connect 20 0 16 1;
#X connect 21 0 22 0;
#X connect 22 0 10 2;
#X connect 23 0 24 0;
#X connect 24 0 10 1;
#X connect 25 0 10 0;
#X connect 25 1 23 0;
#X connect 25 2 21 0;
#X connect 26 0 12 0;
#X connect 26 1 27 0;
#X connect 27 0 28 0;
#X connect 27 1 30 0;
#X connect 28 0 29 0;
#X connect 29 0 12 1;
#X connect 30 0 61 0;
#X connect 31 0 32 0;
#X connect 32 0 62 0;
#X connect 33 0 5 0;
#X connect 34 0 35 0;
#X connect 34 1 38 0;
#X connect 35 0 36 0;
#X connect 36 0 37 1;
#X connect 37 0 33 1;
#X connect 38 0 42 0;
#X connect 39 0 37 0;
#X connect 39 1 34 0;
#X connect 39 2 40 0;
#X connect 40 0 41 0;
#X connect 41 0 32 1;
#X connect 42 0 37 2;
#X connect 43 0 52 1;
#X connect 44 0 4 0;
#X connect 44 0 56 0;
#X connect 44 1 11 0;
#X connect 44 2 55 0;
#X connect 44 5 45 0;
#X connect 46 0 25 0;
#X connect 47 0 39 0;
#X connect 48 0 26 0;
#X connect 50 0 54 0;
#X connect 51 0 53 0;
#X connect 51 1 43 1;
#X connect 52 0 9 0;
#X connect 53 0 43 0;
#X connect 54 0 51 0;
#X connect 55 0 57 0;
#X connect 57 0 58 0;
#X connect 58 0 59 0;
#X connect 59 0 60 1;
#X connect 60 0 15 0;
#X connect 61 0 12 2;
#X connect 62 0 33 0;
