#N canvas 1446 979 1101 697 12;
#X symbolatom 151 218 58 0 0 0 - - -;
#X text 148 146 Type about your thoughts \, emotions \, hopes and fears
during lockdown into the box...;
#X obj 622 140 loadbang;
#X obj 621 190 symbol;
#X msg 622 164 ...;
#X obj 608 42 key;
#X obj 608 90 t b;
#X obj 608 66 route 10 32 8;
#X connect 2 0 4 0;
#X connect 3 0 0 0;
#X connect 4 0 3 0;
#X connect 5 0 7 0;
#X connect 6 0 4 0;
#X connect 7 0 6 0;
#X connect 7 1 6 0;
#X connect 7 2 6 0;
#X coords 0 -1 1 1 500 200 2 100 100;
