#N canvas 2384 139 1085 1281 12;
#X obj 84 198 r wordlists;
#X obj 84 224 route \$1;
#X text 158 225 makes a bang when this word is detected;
#X obj 86 676 readsf~ 2;
#X obj 87 994 throw~ LEFT;
#X obj 85 894 *~;
#X obj 139 893 *~;
#X obj 157 786 \$3;
#X obj 157 810 clip 0 2;
#X obj 157 760 loadbang;
#X text 231 784 gain offset;
#X msg 157 834 \$1 10;
#X obj 157 858 line~;
#X obj 141 947 throw~ RIGHT;
#X obj 455 365 symbol \$2;
#X msg 455 392 open ../audio/\$1.wav;
#X msg 138 471 1;
#X obj 85 421 r tick;
#X obj 85 446 mod \$4;
#X obj 85 470 sel 0;
#X msg 87 581 1;
#X obj 86 500 spigot 0;
#X obj 86 524 t b b;
#X msg 117 550 0;
#X text 545 361 opens the sound file;
#X text 177 448 on the next quantize value triggers it to play;
#X obj 87 255 t b b b;
#X obj 132 331 s recognised;
#X obj 136 297 symbol \$1;
#X obj 795 520 print RECOGNISED:;
#X obj 795 377 t a b;
#X obj 794 456 list;
#X obj 842 400 del 100;
#X obj 794 480 list trim;
#X connect 0 0 1 0;
#X connect 1 0 26 0;
#X connect 3 0 5 0;
#X connect 3 1 6 0;
#X connect 5 0 4 0;
#X connect 6 0 13 0;
#X connect 7 0 8 0;
#X connect 8 0 11 0;
#X connect 9 0 7 0;
#X connect 11 0 12 0;
#X connect 12 0 6 1;
#X connect 12 0 5 1;
#X connect 14 0 15 0;
#X connect 15 0 3 0;
#X connect 16 0 21 1;
#X connect 17 0 18 0;
#X connect 18 0 19 0;
#X connect 19 0 21 0;
#X connect 20 0 3 0;
#X connect 21 0 22 0;
#X connect 22 0 20 0;
#X connect 22 1 23 0;
#X connect 23 0 21 1;
#X connect 26 0 16 0;
#X connect 26 1 14 0;
#X connect 26 2 28 0;
#X connect 28 0 27 0;
#X connect 28 0 30 0;
#X connect 30 0 31 1;
#X connect 30 1 32 0;
#X connect 31 0 33 0;
#X connect 32 0 31 0;
#X connect 33 0 29 0;
