#N canvas 1517 79 569 702 12;
#X declare -path heavylib;
#X declare -path abs;
#X declare -path audio;
#X declare -path rj;
#X obj 26 28 UI;
#N canvas 1581 782 584 533 howitworks 0;
#N canvas 1698 1092 450 300 masterout 0;
#X obj 50 219 dac~;
#X obj 51 167 clip~ -1 1;
#X obj 146 167 clip~ -1 1;
#X obj 51 137 hv.tanh;
#X obj 146 138 hv.tanh;
#X obj 50 106 e_scompressor 90 5;
#X obj 48 31 catch~ LEFT;
#X obj 111 65 catch~ RIGHT;
#X connect 1 0 0 0;
#X connect 2 0 0 1;
#X connect 3 0 1 0;
#X connect 4 0 2 0;
#X connect 5 0 3 0;
#X connect 5 1 4 0;
#X connect 6 0 5 0;
#X connect 7 0 5 1;
#X restore 26 468 pd masterout;
#N canvas 945 881 1150 779 keyword_playback 0;
#X text 69 36 each one of these plays a sound file when a keyword is
detected.;
#X obj 70 131 wordplay dog dog 1 8;
#X text 67 162 here dog keyword plays the dog sound file at volume
1 quantised to 8 ticks ( 1 beat );
#X text 66 290 to do - make loads of these...;
#X restore 23 188 pd keyword_playback;
#N canvas 1574 874 637 251 declare_libraries 0;
#X obj 31 61 declare -path heavylib;
#X obj 31 88 declare -path abs;
#X text 208 50 here we load libraries and abstractions we might need
;
#X obj 32 122 declare -path audio;
#X obj 31 35 declare -path rj;
#X msg 31 195 \; pd dsp 1;
#X obj 31 167 loadbang;
#X text 117 205 we also turn DSP on so we can hear stuff!;
#X connect 6 0 5 0;
#X restore 24 28 pd declare_libraries;
#N canvas 989 670 869 633 key_input 0;
#X obj 87 107 key;
#X obj 161 242 u_collect;
#X msg 226 272 0 0 0;
#X obj 249 164 key;
#X obj 87 131 route 10 32;
#X obj 249 200 sel 10 32;
#X obj 227 420 list tosymbol;
#X obj 253 237 t b b;
#X obj 227 444 list trim;
#X text 180 134 ignore space and enter;
#X text 362 199 evaluate on space or enter;
#X obj 227 500 s wordlists;
#X text 206 60 there is probably a much better way of doing this!;
#X text 342 243 collects the numbers for each key pressed;
#X text 347 421 on a space or enter convert back into a word;
#X text 325 499 send latest word around the patch;
#X connect 0 0 4 0;
#X connect 1 0 2 0;
#X connect 2 0 6 0;
#X connect 3 0 5 0;
#X connect 4 2 1 0;
#X connect 5 0 7 0;
#X connect 5 1 7 0;
#X connect 6 0 8 0;
#X connect 7 0 1 1;
#X connect 7 1 2 0;
#X connect 8 0 11 0;
#X restore 22 58 pd key_input;
#X text 218 28 This code is open source BSD licensed;
#N canvas 1490 591 670 380 timebase 0;
#X obj 56 158 loadbang;
#X msg 143 56 100;
#X obj 142 105 /;
#X msg 143 82 60000 \$1;
#X obj 143 133 / 8;
#X text 236 55 our bpm;
#X obj 142 31 loadbang;
#X obj 56 182 metro 75;
#X obj 141 259 s TIMEBASE-ms;
#X obj 217 146 mod 4;
#X obj 217 168 sel 0;
#X obj 217 124 r tick;
#X text 259 208 sends around a value we can sync delays to etc;
#X obj 55 295 s tick;
#X obj 56 242 f;
#X obj 93 241 + 1;
#X text 114 297 sends around a tick we can sync events to;
#X obj 144 229 f;
#X connect 0 0 7 0;
#X connect 1 0 3 0;
#X connect 2 0 4 0;
#X connect 3 0 2 0;
#X connect 4 0 7 1;
#X connect 4 0 17 1;
#X connect 6 0 1 0;
#X connect 7 0 14 0;
#X connect 9 0 10 0;
#X connect 10 0 17 0;
#X connect 11 0 9 0;
#X connect 14 0 15 0;
#X connect 14 0 13 0;
#X connect 15 0 14 1;
#X connect 17 0 8 0;
#X restore 21 101 pd timebase;
#N canvas 623 513 1463 1521 keystroke_melodies 0;
#X obj 405 16 key;
#X obj 403 96 int;
#X obj 403 72 / 3;
#X obj 255 1162 throw~ LEFT;
#X obj 306 1196 throw~ RIGHT;
#X obj 104 161 r tick;
#X obj 103 210 sel 0;
#X obj 260 375 spigot 0;
#X msg 325 350 1;
#X obj 397 265 t f b;
#X obj 258 334 f;
#X obj 260 399 t f b;
#X msg 345 397 0;
#X obj 299 528 f;
#X obj 337 527 + 1;
#X obj 257 583 list prepend;
#X obj 257 607 list trim;
#X obj 559 1104 throw~ REVERB;
#X obj 252 920 *~ 1;
#X obj 259 489 t f b;
#X obj 299 552 mod 15;
#X text 176 187 typing quantized to 32nd notes;
#X obj 396 224 m_majorscale 55;
#X text 520 226 all input is in the scale of G major and its relative
modes;
#X obj 721 1101 throw~ DELAY;
#X obj 253 1122 e_chorus;
#X obj 327 1057 loadbang;
#X msg 327 1086 freq 0.3 \, mod 2;
#X obj 574 637 s modindex;
#X obj 719 1070 *~ 0.2;
#X msg 576 603 200;
#X obj 577 573 loadbang;
#X obj 103 185 mod 2;
#X obj 403 120 - 25;
#X obj 255 731 hv.filter highpass 350 1;
#X obj 558 1071 *~ 0.25;
#X obj 251 827 hv.tanh;
#X obj 251 861 e_mcompressor 90 5;
#X obj 255 796 *~ 0.1;
#X obj 257 679 clone fmsynthvoice 15;
#X connect 0 0 2 0;
#X connect 1 0 33 0;
#X connect 2 0 1 0;
#X connect 5 0 32 0;
#X connect 6 0 10 0;
#X connect 7 0 11 0;
#X connect 8 0 7 1;
#X connect 9 0 10 1;
#X connect 9 1 8 0;
#X connect 10 0 7 0;
#X connect 11 0 19 0;
#X connect 11 1 12 0;
#X connect 12 0 7 1;
#X connect 13 0 14 0;
#X connect 13 0 20 0;
#X connect 14 0 13 1;
#X connect 15 0 16 0;
#X connect 16 0 39 0;
#X connect 18 0 25 0;
#X connect 18 0 29 0;
#X connect 18 0 35 0;
#X connect 19 0 15 0;
#X connect 19 1 13 0;
#X connect 20 0 15 1;
#X connect 22 0 9 0;
#X connect 25 0 3 0;
#X connect 25 1 4 0;
#X connect 26 0 27 0;
#X connect 27 0 25 1;
#X connect 29 0 24 0;
#X connect 30 0 28 0;
#X connect 31 0 30 0;
#X connect 32 0 6 0;
#X connect 33 0 22 0;
#X connect 34 0 38 0;
#X connect 35 0 17 0;
#X connect 36 0 37 0;
#X connect 37 0 18 0;
#X connect 38 0 36 0;
#X connect 39 0 34 0;
#X restore 23 230 pd keystroke_melodies;
#X text 217 54 Aside from some rjlib components which are GPL;
#N canvas 790 912 1163 873 platereverb_fx 0;
#X obj 86 15 catch~ REVERB;
#N canvas 15 98 781 670 presets 0;
#X obj -1 30 inlet;
#X obj -1 68 route default large large_noexcursion huge huge_noexcursion
tadada;
#X obj -1 587 s \$0-GUI;
#X msg -1 134 predelay 0 \, bandwidth 22050 \, damping 22050 \, decay
0.5 \, input_diffusion1 0.75 \, input_diffusion2 0.625 \, decay_diffusion1
0.7 \, decay_diffusion2 0.5 \, excursion 0.53761 \;;
#X msg 135 274 predelay 0 \, bandwidth 10000 \, damping 4637 \, decay
0.98 \, input_diffusion1 0.685 \, input_diffusion2 0.779 \, decay_diffusion1
0.74 \, decay_diffusion2 0.68 \, excursion 0 \,;
#X msg 67 197 predelay 0 \, bandwidth 10000 \, damping 4637 \, decay
0.98 \, input_diffusion1 0.685 \, input_diffusion2 0.779 \, decay_diffusion1
0.74 \, decay_diffusion2 0.68 \, excursion 0.53761 \,;
#X msg 206 350 predelay 10 \, bandwidth 10000 \, damping 4637 \, decay
0.99 \, input_diffusion1 0.685 \, input_diffusion2 0.779 \, decay_diffusion1
0.889 \, decay_diffusion2 0.84 \, excursion 0.53761 \;;
#X msg 340 525 predelay 216.535 \, bandwidth 22050 \, damping 22050
\, decay 0.677165 \, input_diffusion1 0.850394 \, input_diffusion2
0.92126 \, decay_diffusion1 0.80315 \, decay_diffusion2 0.818898 \,
excursion 0.11811 \;;
#X msg 272 437 predelay 10 \, bandwidth 10000 \, damping 4637 \, decay
0.99 \, input_diffusion1 0.685 \, input_diffusion2 0.779 \, decay_diffusion1
0.889 \, decay_diffusion2 0.84 \, excursion 0 \;;
#X connect 0 0 1 0;
#X connect 1 0 3 0;
#X connect 1 1 5 0;
#X connect 1 2 4 0;
#X connect 1 3 6 0;
#X connect 1 4 8 0;
#X connect 1 5 7 0;
#X connect 3 0 2 0;
#X connect 4 0 2 0;
#X connect 5 0 2 0;
#X connect 6 0 2 0;
#X connect 7 0 2 0;
#X connect 8 0 2 0;
#X restore 465 225 pd presets;
#X msg 465 83 default;
#X msg 466 150 huge;
#X msg 465 175 huge_noexcursion;
#X msg 589 105 large;
#X msg 465 129 large_noexcursion;
#X msg 465 198 tadada;
#X obj 259 245 hsl 128 15 0 1 0 0 empty empty empty -2 -8 0 10 -262144
-1 -1 4191 1;
#X msg 256 264 dry \$1;
#X obj 85 301 e_platereverb somename;
#X obj 256 189 loadbang;
#X msg 256 220 0.33;
#X msg 278 292 save;
#X obj 236 335 u_cocollect;
#X msg 236 365 dry 0.33 \, decay_diffusion2 0.68 \, decay_diffusion1
0.74 \, input_diffusion2 0.779 \, excursion 0.53761 \, input_diffusion1
0.685 \, decay 0.98 \, damping 4637 \, bandwidth 10000 \, predelay
0 \,;
#X obj 278 312 t a b;
#X text 461 57 Presets;
#X obj 236 165 r \$0-CTL;
#N canvas 0 0 622 572 Parameter 0;
#X obj 201 466 s \$0-CTL;
#X text 251 5 GUI;
#X text 385 6 No-GUI;
#X obj 201 105 g_hsl predelay 0 250;
#X obj 201 145 g_hsl bandwidth 220.05 22050;
#X obj 201 185 g_hsl damping 220.5 22050;
#X obj 201 225 g_hsl decay 0 1;
#X obj 201 428 g_hsl excursion 0 5;
#X msg 369 432 excursion \$1;
#X msg 369 110 predelay \$1;
#X msg 369 149 bandwidth \$1;
#X msg 369 190 damping \$1;
#X msg 369 229 decay \$1;
#X msg 369 272 input_diffusion1 \$1;
#X msg 369 302 input_diffusion2 \$1;
#X msg 369 352 decay_diffusion1 \$1;
#X msg 369 381 decay_diffusion2 \$1;
#X obj 201 268 g_hsl input_diffusion1 0 1;
#X obj 201 298 g_hsl input_diffusion2 0 1;
#X obj 201 348 g_hsl decay_diffusion1 0 1;
#X obj 201 378 g_hsl decay_diffusion2 0 1;
#X text 81 288 Input Diffusion;
#X text 151 230 Decay;
#X text 137 191 Damping;
#X text 47 150 Bandwidth (frequency);
#X text 134 109 Predelay;
#X text 81 367 Decay Diffusion;
#X text 123 433 Excursion;
#X obj 201 29 r \$0-GUI;
#X obj 201 61 g_hsl dry 0 1;
#X text 111 66 Wet/Dry Mix;
#X msg 369 66 dry \$1;
#X connect 3 0 4 0;
#X connect 4 0 5 0;
#X connect 5 0 6 0;
#X connect 6 0 17 0;
#X connect 7 0 0 0;
#X connect 17 0 18 0;
#X connect 18 0 19 0;
#X connect 19 0 20 0;
#X connect 20 0 7 0;
#X connect 28 0 29 0;
#X connect 29 0 3 0;
#X restore 466 17 pd Parameter Controls;
#X obj 80 530 throw~ LEFT;
#X obj 193 531 throw~ RIGHT;
#X obj 85 117 *~ 0.5;
#X obj 591 78 loadbang;
#X obj 85 47 hip~ 500;
#X obj 85 75 hip~ 500;
#X connect 0 0 24 0;
#X connect 2 0 1 0;
#X connect 3 0 1 0;
#X connect 4 0 1 0;
#X connect 5 0 1 0;
#X connect 6 0 1 0;
#X connect 7 0 1 0;
#X connect 8 0 9 0;
#X connect 9 0 10 2;
#X connect 10 0 20 0;
#X connect 10 1 21 0;
#X connect 10 2 14 0;
#X connect 11 0 12 0;
#X connect 12 0 8 0;
#X connect 13 0 16 0;
#X connect 14 0 15 0;
#X connect 16 0 10 2;
#X connect 16 1 14 1;
#X connect 18 0 10 2;
#X connect 22 0 10 0;
#X connect 22 0 10 1;
#X connect 23 0 5 0;
#X connect 24 0 25 0;
#X connect 25 0 22 0;
#X restore 27 393 pd platereverb_fx;
#N canvas 790 912 1163 873 delay_fx 0;
#X obj 79 657 throw~ LEFT;
#X obj 192 658 throw~ RIGHT;
#X obj 85 117 *~ 0.5;
#X obj 85 69 catch~ DELAY;
#X obj 86 276 delwrite~ del 5000;
#X obj 425 207 r TIMEBASE-ms;
#X obj 84 430 vd~ del;
#X obj 85 402 sig~;
#X obj 197 431 vd~ del;
#X obj 198 403 sig~;
#X obj 85 93 hip~ 400;
#X obj 289 506 *~ 0.3;
#X obj 426 270 * 4;
#X obj 464 270 * 8;
#X obj 292 538 hip~ 800;
#X connect 2 0 4 0;
#X connect 3 0 10 0;
#X connect 5 0 12 0;
#X connect 5 0 13 0;
#X connect 6 0 0 0;
#X connect 7 0 6 0;
#X connect 8 0 1 0;
#X connect 8 0 11 0;
#X connect 9 0 8 0;
#X connect 10 0 2 0;
#X connect 11 0 14 0;
#X connect 12 0 7 0;
#X connect 13 0 9 0;
#X connect 14 0 4 0;
#X restore 27 421 pd delay_fx;
#X restore 233 616 pd howitworks;
#X text 166 274 By Robert M Thomas and Sam Dudley;
#X text 113 308 During the #composercoffeebreak #mannersmacdade;
#X text 219 329 mentoring scheme;
#X text 223 405 Robert M Thomas;
#X text 165 430 Instagram : robertthomascomposer;
#X text 242 507 Sam Dudley;
#X text 218 535 Twitter : @smddly;
#X text 173 563 https://www.sdudleymusic.co.uk/;
#X text 184 459 http://robertthomassound.com/;
#N canvas 1493 889 549 326 help 0;
#X text 54 62 Troubleshooting :;
#X text 57 101 - please make sure caps lock is off \, Soliloquy only
recognises words in lower case;
#X restore 252 654 pd help;
