#N canvas 1307 172 569 702 12;
#X declare -path heavylib;
#X declare -path abs;
#X declare -path audio;
#X declare -path rj;
#X obj 27 30 UI;
#N canvas 1356 1230 584 533 howitworks 0;
#N canvas 1936 129 634 606 masterout 0;
#X obj 52 427 dac~;
#X obj 52 384 clip~ -1 1;
#X obj 147 384 clip~ -1 1;
#X obj 52 353 hv.tanh;
#X obj 147 354 hv.tanh;
#X obj 51 323 e_scompressor 90 5;
#X obj 48 31 catch~ LEFT;
#X obj 111 65 catch~ RIGHT;
#X obj 52 285 *~;
#X obj 113 285 *~;
#X obj 133 240 line~;
#X msg 133 212 \$1 10;
#X obj 133 185 r volume;
#X obj 240 184 loadbang;
#X msg 240 208 1;
#X msg 288 209 0;
#X connect 1 0 0 0;
#X connect 2 0 0 1;
#X connect 3 0 1 0;
#X connect 4 0 2 0;
#X connect 5 0 3 0;
#X connect 5 1 4 0;
#X connect 6 0 8 0;
#X connect 7 0 9 0;
#X connect 8 0 5 0;
#X connect 9 0 5 1;
#X connect 10 0 9 1;
#X connect 10 0 8 1;
#X connect 11 0 10 0;
#X connect 12 0 11 0;
#X connect 13 0 14 0;
#X connect 14 0 11 0;
#X connect 15 0 11 0;
#X restore 26 468 pd masterout;
#N canvas 1668 177 1492 1678 keyword_playback 0;
#X text 69 36 each one of these plays a sound file when a keyword is
detected.;
#X obj 70 131 wordplay dog dog 1 8;
#X text 67 162 here dog keyword plays the dog sound file at volume
1 quantised to 8 ticks ( 1 beat );
#X text 65 250 to do - make loads of these...;
#X obj 439 644 wordplay sad sad 1 8;
#X obj 439 668 wordplay afraid afraid 1 8;
#X obj 439 692 wordplay worried worried 1 8;
#X obj 439 716 wordplay anxious anxious 1 8;
#X obj 439 764 wordplay stressed stressed 1 8;
#X obj 439 788 wordplay negative negative 1 8;
#X obj 439 812 wordplay dread dread 1 8;
#X obj 439 740 wordplay depressed depressed 1 8;
#X obj 64 300 wordplay covid covid 1 8;
#X obj 64 324 wordplay covid19 covid19 1 8;
#X obj 64 348 wordplay coronavirus coronavirus 1 8;
#X obj 64 396 wordplay ill ill 1 8;
#X obj 64 420 wordplay sick sick 1 8;
#X obj 64 372 wordplay contagious contagious 1 8;
#X obj 441 300 wordplay exercise exercise 1 8;
#X obj 441 324 wordplay run run 1 8;
#X obj 441 348 wordplay walk walk 1 8;
#X obj 441 372 wordplay fitness fitness 1 8;
#X obj 61 485 wordplay lockdown lockdown 1 8;
#X obj 61 509 wordplay isolated isolated 1 8;
#X obj 61 533 wordplay isolation isolation 1 8;
#X obj 61 557 wordplay alone alone 1 8;
#X obj 63 614 wordplay exhausted exhausted 1 8;
#X obj 63 638 wordplay tired tired 1 8;
#X obj 63 662 wordplay fatigued fatigued;
#X obj 58 736 wordplay think think 1 8;
#X obj 58 760 wordplay contemplate contemplate 1 8;
#X obj 58 784 wordplay reflect reflect 1 8;
#X obj 58 808 wordplay reflecting reflecting 1 8;
#X obj 58 856 wordplay feel feel 1 8;
#X obj 58 832 wordplay reflective reflective 1 8;
#X obj 58 880 wordplay introspective introspective 1 8;
#X obj 58 904 wordplay introspection introspection 1 8;
#X obj 58 928 wordplay ponder ponder 1 8;
#X obj 58 952 wordplay meditate meditate 1 8;
#X obj 441 447 wordplay outside outside 1 8;
#X obj 441 471 wordplay air air 1 8;
#X obj 441 495 wordplay breathe breathe 1 8;
#X obj 441 519 wordplay sunshine sunshine 1 8;
#X obj 441 543 wordplay sky sky 1 8;
#X obj 441 567 wordplay blue blue 1 8;
#X obj 437 880 wordplay happy happy 1 8;
#X obj 437 904 wordplay ok ok 1 8;
#X obj 437 928 wordplay positive positive 1 8;
#X obj 437 952 wordplay optimistic optimistic 1 8;
#X obj 437 976 wordplay laugh laugh 1 8;
#X obj 437 1000 wordplay laughing laughing 1 8;
#X obj 437 1024 wordplay funny funny 1 8;
#X obj 764 300 wordplay slow slow 1 8;
#X obj 764 324 wordplay calm calm 1 8;
#X obj 764 348 wordplay quiet quiet 1 8;
#X obj 762 428 wordplay strange strange 1 8;
#X obj 762 452 wordplay odd odd 1 8;
#X obj 762 476 wordplay surreal surreal 1 8;
#X obj 762 500 wordplay normal normal 1 8;
#X obj 762 524 wordplay normalised normalised 1 8;
#X obj 762 548 wordplay normalisation normalisation 1 8;
#X obj 762 572 wordplay normalise 1 8;
#X obj 763 657 wordplay online online 1 8;
#X obj 763 681 wordplay video video 1 8;
#X obj 763 705 wordplay zoom zoom 1 8;
#X obj 763 729 wordplay skype skype 1 8;
#X obj 763 753 wordplay facetime facetime 1 8;
#X obj 763 777 wordplay connection connection 1 8;
#X obj 766 864 wordplay news news 1 8;
#X obj 766 888 wordplay sensational 1 8;
#X obj 766 912 wordplay panic panic 1 8;
#X obj 766 936 wordplay toiletroll toiletroll 1 8;
#X obj 766 960 wordplay stockpile stockpile 1 8;
#X obj 766 984 wordplay shopping shopping 1 8;
#X obj 766 1008 wordplay fake fake 1 8;
#X obj 1108 290 wordplay social social 1 8;
#X obj 1108 314 wordplay media media 1 8;
#X obj 1108 338 wordplay pressure pressure 1 8;
#X obj 1108 362 wordplay likes likes 1 8;
#X obj 1108 386 wordplay instagram instagram 1 8;
#X obj 1108 410 wordplay twitter twitter 1 8;
#X obj 1108 434 wordplay facebook facebook 1 8;
#X obj 1108 458 wordplay snapchat snapchat 1 8;
#X obj 1108 482 wordplay whatsapp whatsapp 1 8;
#X obj 1110 547 wordplay parents parents 1 8;
#X obj 1110 571 wordplay mum mum 1 8;
#X obj 1110 595 wordplay dad dad 1 8;
#X obj 1110 643 wordplay mom mom 1 8;
#X obj 1110 619 wordplay family family 1 8;
#X obj 1110 667 wordplay father father 1 8;
#X obj 1110 691 wordplay mother mother 1 8;
#X obj 1110 715 wordplay sister sister 1 8;
#X obj 1110 739 wordplay brother brother 1 8;
#X obj 1110 763 wordplay grandparents grandparents 1 8;
#X obj 1110 787 wordplay grandmother grandmother 1 8;
#X obj 1110 811 wordplay grandfather grandfather 1 8;
#X obj 1110 835 wordplay child child 1 8;
#X obj 1110 859 wordplay son son 1 8;
#X obj 1110 883 wordplay daughter daughter 1 8;
#X obj 1112 954 wordplay friend friend 1 8;
#X obj 1112 978 wordplay friends friends 1 8;
#X obj 1112 1002 wordplay boyfriend boyfriend 1 8;
#X obj 1112 1026 wordplay girlfriend girlfriend 1 8;
#X obj 56 1150 wordplay disorientated disorientated 1 8;
#X obj 56 1174 wordplay time time 1 8;
#X obj 56 1198 wordplay day day 1 8;
#X obj 56 1222 wordplay lost lost 1 8;
#X obj 443 1146 wordplay health health 1 8;
#X obj 443 1170 wordplay nhs nhs 1 8;
#X obj 443 1194 wordplay ventilator ventilator 1 8;
#X obj 443 1218 wordplay vitamins vitamins 1 8;
#X obj 443 1242 wordplay clapping clapping 1 8;
#X obj 443 1266 wordplay clap clap 1 8;
#X obj 443 1290 wordplay die die 1 8;
#X obj 443 1314 wordplay death death 1 8;
#X obj 443 1338 wordplay pneumonia pneumonia 1 8;
#X obj 442 1434 wordplay hands hands 1 9;
#X obj 443 1362 wordplay cough cough 1 8;
#X obj 443 1386 wordplay mask mask 1 8;
#X obj 443 1410 wordplay wash wash 1 8;
#X obj 781 1146 wordplay work work 1 8;
#X obj 781 1170 wordplay unemployed unemployed 1 8;
#X obj 781 1194 wordplay furlough furlough 1 8;
#X obj 781 1218 wordplay money money 1 8;
#X obj 781 1242 wordplay bank bank 1 8;
#X obj 781 1266 wordplay rent rent 1 8;
#X obj 781 1290 wordplay mortgage mortgage 1 8;
#X obj 781 1314 wordplay food food 1 8;
#X obj 480 136 wordplay sad sad 1 8;
#X restore 23 188 pd keyword_playback;
#N canvas 1409 609 637 251 declare_libraries 0;
#X obj 31 61 declare -path heavylib;
#X obj 31 88 declare -path abs;
#X text 208 50 here we load libraries and abstractions we might need
;
#X obj 32 122 declare -path audio;
#X obj 31 35 declare -path rj;
#X msg 31 195 \; pd dsp 1;
#X obj 31 167 loadbang;
#X text 117 205 we also turn DSP on so we can hear stuff!;
#X connect 6 0 5 0;
#X restore 24 28 pd declare_libraries;
#N canvas 634 207 869 633 key_input 0;
#X obj 87 107 key;
#X obj 161 283 u_collect;
#X msg 226 313 0 0 0;
#X obj 249 164 key;
#X obj 87 131 route 10 32;
#X obj 227 420 list tosymbol;
#X obj 253 278 t b b;
#X obj 227 444 list trim;
#X text 180 134 ignore space and enter;
#X obj 227 500 s wordlists;
#X text 206 60 there is probably a much better way of doing this!;
#X text 342 275 collects the numbers for each key pressed;
#X text 347 421 on a space or enter convert back into a word;
#X text 325 499 send latest word around the patch;
#X obj 249 200 sel 10 32 8;
#X text 363 199 evaluate on space or enter or delete;
#X obj 297 229 del 1;
#X text 389 223 removes collected delete;
#X connect 0 0 4 0;
#X connect 1 0 2 0;
#X connect 2 0 5 0;
#X connect 3 0 14 0;
#X connect 4 2 1 0;
#X connect 5 0 7 0;
#X connect 6 0 1 1;
#X connect 6 1 2 0;
#X connect 7 0 9 0;
#X connect 14 0 6 0;
#X connect 14 1 6 0;
#X connect 14 2 16 0;
#X connect 16 0 1 1;
#X restore 22 58 pd key_input;
#X text 218 28 This code is open source BSD licensed;
#N canvas 852 477 1068 581 timebase 0;
#X obj 187 178 loadbang;
#X msg 274 76 100;
#X obj 273 125 /;
#X msg 274 102 60000 \$1;
#X obj 274 153 / 8;
#X text 367 75 our bpm;
#X obj 273 51 loadbang;
#X obj 187 202 metro 75;
#X obj 272 279 s TIMEBASE-ms;
#X obj 348 166 mod 4;
#X obj 348 188 sel 0;
#X obj 348 144 r tick;
#X text 390 228 sends around a value we can sync delays to etc;
#X obj 186 315 s tick;
#X obj 187 262 f;
#X obj 224 261 + 1;
#X text 245 317 sends around a tick we can sync events to;
#X obj 275 249 f;
#X obj 187 73 r restart;
#X obj 187 97 t b b;
#X msg 218 124 0;
#X msg 87 102 stop;
#X obj 87 78 r stopmetro;
#X connect 0 0 7 0;
#X connect 1 0 3 0;
#X connect 2 0 4 0;
#X connect 3 0 2 0;
#X connect 4 0 7 1;
#X connect 4 0 17 1;
#X connect 6 0 1 0;
#X connect 7 0 14 0;
#X connect 9 0 10 0;
#X connect 10 0 17 0;
#X connect 11 0 9 0;
#X connect 14 0 15 0;
#X connect 14 0 13 0;
#X connect 15 0 14 1;
#X connect 17 0 8 0;
#X connect 18 0 19 0;
#X connect 19 0 7 0;
#X connect 19 1 20 0;
#X connect 20 0 14 1;
#X connect 21 0 7 0;
#X connect 22 0 21 0;
#X restore 21 101 pd timebase;
#N canvas 394 23 1798 1424 keystroke_melodies 0;
#X obj 788 489 key;
#X obj 248 1274 throw~ LEFT;
#X obj 299 1308 throw~ RIGHT;
#X obj 94 176 r tick;
#X obj 93 225 sel 0;
#X obj 249 446 spigot 0;
#X msg 314 421 1;
#X obj 395 263 t f b;
#X obj 247 405 f;
#X obj 249 470 t f b;
#X msg 334 468 0;
#X obj 321 548 f;
#X obj 365 548 + 1;
#X obj 248 624 list prepend;
#X obj 246 651 list trim;
#X obj 552 1216 throw~ REVERB;
#X obj 245 1032 *~ 1;
#X obj 248 528 t f b;
#X obj 321 575 mod 15;
#X text 519 224 all input is in the scale of G major and its relative
modes;
#X obj 714 1213 throw~ DELAY;
#X obj 246 1234 e_chorus;
#X obj 320 1169 loadbang;
#X msg 320 1198 freq 0.3 \, mod 2;
#X obj 608 797 s modindex;
#X obj 712 1182 *~ 0.2;
#X msg 610 763 200;
#X obj 611 733 loadbang;
#X obj 245 881 hv.filter highpass 350 1;
#X obj 245 942 hv.tanh;
#X obj 244 973 e_mcompressor 90 5;
#X obj 244 797 clone fmsynthvoice 15;
#X obj 245 907 hv.filter notch 640 1;
#X obj 551 1183 *~ 0.1;
#X msg 926 90 49 50 51 52 53 54 55 56 57 48;
#X msg 900 123 113 119 101 114 116 121 117 105 111 112;
#X msg 912 149 97 115 100 102 103 104 106 107 108;
#X msg 929 180 122 120 99 118 98 110 109 0 0;
#X obj 788 519 sel 113 119 101 114 116 121 117 105 111 112;
#X obj 789 594 s note;
#X obj 845 596 s note;
#X obj 394 34 r note;
#X obj 902 595 s note;
#X obj 958 595 s note;
#X obj 1013 594 s note;
#X obj 1069 597 s note;
#X obj 1132 593 s note;
#X obj 1193 597 s note;
#X obj 1257 593 s note;
#X obj 1319 593 s note;
#X obj 776 806 key;
#X msg 777 887 0;
#X obj 777 911 s note;
#X obj 833 913 s note;
#X msg 833 889 1;
#X obj 890 912 s note;
#X msg 890 888 2;
#X obj 946 912 s note;
#X msg 946 888 3;
#X obj 1001 911 s note;
#X msg 1001 887 4;
#X obj 1057 914 s note;
#X msg 1057 890 5;
#X obj 1120 910 s note;
#X msg 1120 886 6;
#X obj 777 836 sel 122 120 99 118 98 110 109;
#X obj 777 754 s note;
#X obj 833 756 s note;
#X obj 890 755 s note;
#X obj 946 755 s note;
#X obj 1001 754 s note;
#X obj 1057 757 s note;
#X obj 1120 753 s note;
#X obj 1181 757 s note;
#X obj 1245 753 s note;
#X obj 789 655 sel 97 115 100 102 103 104 106 107 108;
#X obj 788 631 key;
#X msg 777 730 7;
#X msg 833 732 8;
#X msg 890 731 9;
#X msg 946 731 10;
#X msg 1001 730 11;
#X msg 1057 733 12;
#X msg 1120 730 13;
#X msg 1181 733 14;
#X msg 1245 729 15;
#X obj 394 226 m_majorscale 55;
#X msg 789 570 16;
#X msg 845 572 17;
#X msg 902 571 18;
#X msg 958 571 19;
#X msg 1013 570 20;
#X msg 1069 573 21;
#X msg 1132 569 22;
#X msg 1193 573 23;
#X msg 1257 569 24;
#X msg 1319 569 25;
#X obj 787 298 key;
#X obj 786 411 s note;
#X obj 842 413 s note;
#X obj 899 412 s note;
#X obj 955 412 s note;
#X obj 1010 411 s note;
#X obj 1066 414 s note;
#X obj 1129 410 s note;
#X obj 1190 414 s note;
#X obj 1254 410 s note;
#X obj 1316 410 s note;
#X obj 787 328 sel 49 50 51 52 53 54 55 56 57 48;
#X msg 786 387 26;
#X msg 842 389 27;
#X msg 899 388 28;
#X msg 955 388 29;
#X msg 1010 387 30;
#X msg 1066 390 31;
#X msg 1129 386 32;
#X msg 1190 390 33;
#X msg 1254 386 34;
#X msg 1316 386 35;
#X obj 94 200 mod 2;
#X text 145 198 typing quantized to 16th notes;
#X obj 569 85 u_wrandom;
#X obj 626 32 loadbang;
#X obj 394 58 t f b;
#X msg 651 139 1;
#X obj 573 171 s synthvol;
#X obj 321 599 t f f;
#X obj 353 626 s currentsynthvoice;
#X obj 588 654 r synthvol;
#X obj 405 657 r currentsynthvoice;
#X obj 405 681 pack f f;
#X msg 246 701 \$1 note \$2;
#X msg 401 714 \$1 vol \$2;
#X obj 245 842 *~ 1;
#X msg 628 57 1 3 5;
#X obj 569 109 sel 0 1 2;
#X msg 571 137 0.1;
#X msg 607 139 0.3;
#X connect 0 0 38 0;
#X connect 3 0 119 0;
#X connect 4 0 8 0;
#X connect 5 0 9 0;
#X connect 6 0 5 1;
#X connect 7 0 8 1;
#X connect 7 1 6 0;
#X connect 8 0 5 0;
#X connect 9 0 17 0;
#X connect 9 1 10 0;
#X connect 10 0 5 1;
#X connect 11 0 12 0;
#X connect 11 0 18 0;
#X connect 12 0 11 1;
#X connect 13 0 14 0;
#X connect 14 0 131 0;
#X connect 16 0 21 0;
#X connect 16 0 25 0;
#X connect 16 0 33 0;
#X connect 17 0 13 0;
#X connect 17 1 11 0;
#X connect 18 0 126 0;
#X connect 21 0 1 0;
#X connect 21 1 2 0;
#X connect 22 0 23 0;
#X connect 23 0 21 1;
#X connect 25 0 20 0;
#X connect 26 0 24 0;
#X connect 27 0 26 0;
#X connect 28 0 32 0;
#X connect 29 0 30 0;
#X connect 30 0 16 0;
#X connect 31 0 133 0;
#X connect 32 0 29 0;
#X connect 33 0 15 0;
#X connect 38 0 87 0;
#X connect 38 1 88 0;
#X connect 38 2 89 0;
#X connect 38 3 90 0;
#X connect 38 4 91 0;
#X connect 38 5 92 0;
#X connect 38 6 93 0;
#X connect 38 7 94 0;
#X connect 38 8 95 0;
#X connect 38 9 96 0;
#X connect 41 0 123 0;
#X connect 50 0 65 0;
#X connect 51 0 52 0;
#X connect 54 0 53 0;
#X connect 56 0 55 0;
#X connect 58 0 57 0;
#X connect 60 0 59 0;
#X connect 62 0 61 0;
#X connect 64 0 63 0;
#X connect 65 0 51 0;
#X connect 65 1 54 0;
#X connect 65 2 56 0;
#X connect 65 3 58 0;
#X connect 65 4 60 0;
#X connect 65 5 62 0;
#X connect 65 6 64 0;
#X connect 75 0 77 0;
#X connect 75 1 78 0;
#X connect 75 2 79 0;
#X connect 75 3 80 0;
#X connect 75 4 81 0;
#X connect 75 5 82 0;
#X connect 75 6 83 0;
#X connect 75 7 84 0;
#X connect 75 8 85 0;
#X connect 76 0 75 0;
#X connect 77 0 66 0;
#X connect 78 0 67 0;
#X connect 79 0 68 0;
#X connect 80 0 69 0;
#X connect 81 0 70 0;
#X connect 82 0 71 0;
#X connect 83 0 72 0;
#X connect 84 0 73 0;
#X connect 85 0 74 0;
#X connect 86 0 7 0;
#X connect 87 0 39 0;
#X connect 88 0 40 0;
#X connect 89 0 42 0;
#X connect 90 0 43 0;
#X connect 91 0 44 0;
#X connect 92 0 45 0;
#X connect 93 0 46 0;
#X connect 94 0 47 0;
#X connect 95 0 48 0;
#X connect 96 0 49 0;
#X connect 97 0 108 0;
#X connect 108 0 109 0;
#X connect 108 1 110 0;
#X connect 108 2 111 0;
#X connect 108 3 112 0;
#X connect 108 4 113 0;
#X connect 108 5 114 0;
#X connect 108 6 115 0;
#X connect 108 7 116 0;
#X connect 108 8 117 0;
#X connect 108 9 118 0;
#X connect 109 0 98 0;
#X connect 110 0 99 0;
#X connect 111 0 100 0;
#X connect 112 0 101 0;
#X connect 113 0 102 0;
#X connect 114 0 103 0;
#X connect 115 0 104 0;
#X connect 116 0 105 0;
#X connect 117 0 106 0;
#X connect 118 0 107 0;
#X connect 119 0 4 0;
#X connect 121 0 135 0;
#X connect 122 0 134 0;
#X connect 123 0 86 0;
#X connect 123 1 121 0;
#X connect 124 0 125 0;
#X connect 126 0 13 1;
#X connect 126 1 127 0;
#X connect 128 0 130 1;
#X connect 129 0 130 0;
#X connect 130 0 132 0;
#X connect 131 0 31 0;
#X connect 132 0 31 0;
#X connect 133 0 28 0;
#X connect 134 0 121 1;
#X connect 135 0 136 0;
#X connect 135 1 137 0;
#X connect 135 2 124 0;
#X connect 136 0 125 0;
#X connect 137 0 125 0;
#X restore 23 230 pd keystroke_melodies;
#X text 217 54 Aside from some rjlib components which are GPL;
#N canvas 806 211 1163 873 platereverb_fx 0;
#X obj 86 15 catch~ REVERB;
#N canvas 15 98 781 670 presets 0;
#X obj -1 30 inlet;
#X obj -1 68 route default large large_noexcursion huge huge_noexcursion
tadada;
#X obj -1 587 s \$0-GUI;
#X msg -1 134 predelay 0 \, bandwidth 22050 \, damping 22050 \, decay
0.5 \, input_diffusion1 0.75 \, input_diffusion2 0.625 \, decay_diffusion1
0.7 \, decay_diffusion2 0.5 \, excursion 0.53761 \;;
#X msg 135 274 predelay 0 \, bandwidth 10000 \, damping 4637 \, decay
0.98 \, input_diffusion1 0.685 \, input_diffusion2 0.779 \, decay_diffusion1
0.74 \, decay_diffusion2 0.68 \, excursion 0 \,;
#X msg 67 197 predelay 0 \, bandwidth 10000 \, damping 4637 \, decay
0.98 \, input_diffusion1 0.685 \, input_diffusion2 0.779 \, decay_diffusion1
0.74 \, decay_diffusion2 0.68 \, excursion 0.53761 \,;
#X msg 206 350 predelay 10 \, bandwidth 10000 \, damping 4637 \, decay
0.99 \, input_diffusion1 0.685 \, input_diffusion2 0.779 \, decay_diffusion1
0.889 \, decay_diffusion2 0.84 \, excursion 0.53761 \;;
#X msg 340 525 predelay 216.535 \, bandwidth 22050 \, damping 22050
\, decay 0.677165 \, input_diffusion1 0.850394 \, input_diffusion2
0.92126 \, decay_diffusion1 0.80315 \, decay_diffusion2 0.818898 \,
excursion 0.11811 \;;
#X msg 272 437 predelay 10 \, bandwidth 10000 \, damping 4637 \, decay
0.99 \, input_diffusion1 0.685 \, input_diffusion2 0.779 \, decay_diffusion1
0.889 \, decay_diffusion2 0.84 \, excursion 0 \;;
#X connect 0 0 1 0;
#X connect 1 0 3 0;
#X connect 1 1 5 0;
#X connect 1 2 4 0;
#X connect 1 3 6 0;
#X connect 1 4 8 0;
#X connect 1 5 7 0;
#X connect 3 0 2 0;
#X connect 4 0 2 0;
#X connect 5 0 2 0;
#X connect 6 0 2 0;
#X connect 7 0 2 0;
#X connect 8 0 2 0;
#X restore 465 225 pd presets;
#X msg 465 83 default;
#X msg 466 150 huge;
#X msg 465 175 huge_noexcursion;
#X msg 589 105 large;
#X msg 465 129 large_noexcursion;
#X msg 465 198 tadada;
#X obj 259 245 hsl 128 15 0 1 0 0 empty empty empty -2 -8 0 10 -262144
-1 -1 4191 1;
#X msg 256 264 dry \$1;
#X obj 85 301 e_platereverb somename;
#X obj 256 189 loadbang;
#X msg 256 220 0.33;
#X msg 278 292 save;
#X obj 236 335 u_cocollect;
#X msg 236 365 dry 0.33 \, decay_diffusion2 0.68 \, decay_diffusion1
0.74 \, input_diffusion2 0.779 \, excursion 0.53761 \, input_diffusion1
0.685 \, decay 0.98 \, damping 4637 \, bandwidth 10000 \, predelay
0 \,;
#X obj 278 312 t a b;
#X text 461 57 Presets;
#X obj 236 165 r \$0-CTL;
#N canvas 0 0 622 572 Parameter 0;
#X obj 201 466 s \$0-CTL;
#X text 251 5 GUI;
#X text 385 6 No-GUI;
#X obj 201 105 g_hsl predelay 0 250;
#X obj 201 145 g_hsl bandwidth 220.05 22050;
#X obj 201 185 g_hsl damping 220.5 22050;
#X obj 201 225 g_hsl decay 0 1;
#X obj 201 428 g_hsl excursion 0 5;
#X msg 369 432 excursion \$1;
#X msg 369 110 predelay \$1;
#X msg 369 149 bandwidth \$1;
#X msg 369 190 damping \$1;
#X msg 369 229 decay \$1;
#X msg 369 272 input_diffusion1 \$1;
#X msg 369 302 input_diffusion2 \$1;
#X msg 369 352 decay_diffusion1 \$1;
#X msg 369 381 decay_diffusion2 \$1;
#X obj 201 268 g_hsl input_diffusion1 0 1;
#X obj 201 298 g_hsl input_diffusion2 0 1;
#X obj 201 348 g_hsl decay_diffusion1 0 1;
#X obj 201 378 g_hsl decay_diffusion2 0 1;
#X text 81 288 Input Diffusion;
#X text 151 230 Decay;
#X text 137 191 Damping;
#X text 47 150 Bandwidth (frequency);
#X text 134 109 Predelay;
#X text 81 367 Decay Diffusion;
#X text 123 433 Excursion;
#X obj 201 29 r \$0-GUI;
#X obj 201 61 g_hsl dry 0 1;
#X text 111 66 Wet/Dry Mix;
#X msg 369 66 dry \$1;
#X connect 3 0 4 0;
#X connect 4 0 5 0;
#X connect 5 0 6 0;
#X connect 6 0 17 0;
#X connect 7 0 0 0;
#X connect 17 0 18 0;
#X connect 18 0 19 0;
#X connect 19 0 20 0;
#X connect 20 0 7 0;
#X connect 28 0 29 0;
#X connect 29 0 3 0;
#X restore 466 17 pd Parameter Controls;
#X obj 80 530 throw~ LEFT;
#X obj 193 531 throw~ RIGHT;
#X obj 85 117 *~ 0.5;
#X obj 591 78 loadbang;
#X obj 85 47 hip~ 500;
#X obj 85 75 hip~ 500;
#X obj 408 574 e_reverb;
#X connect 0 0 24 0;
#X connect 2 0 1 0;
#X connect 3 0 1 0;
#X connect 4 0 1 0;
#X connect 5 0 1 0;
#X connect 6 0 1 0;
#X connect 7 0 1 0;
#X connect 8 0 9 0;
#X connect 9 0 10 2;
#X connect 10 0 20 0;
#X connect 10 1 21 0;
#X connect 10 2 14 0;
#X connect 11 0 12 0;
#X connect 12 0 8 0;
#X connect 13 0 16 0;
#X connect 14 0 15 0;
#X connect 16 0 10 2;
#X connect 16 1 14 1;
#X connect 18 0 10 2;
#X connect 22 0 10 0;
#X connect 22 0 10 1;
#X connect 23 0 5 0;
#X connect 24 0 25 0;
#X connect 25 0 22 0;
#X restore 27 393 pd platereverb_fx;
#N canvas 1128 174 1163 873 delay_fx 0;
#X obj 79 657 throw~ LEFT;
#X obj 192 658 throw~ RIGHT;
#X obj 85 117 *~ 0.5;
#X obj 85 69 catch~ DELAY;
#X obj 86 276 delwrite~ del 5000;
#X obj 425 207 r TIMEBASE-ms;
#X obj 84 430 vd~ del;
#X obj 85 402 sig~;
#X obj 197 431 vd~ del;
#X obj 198 403 sig~;
#X obj 85 93 hip~ 400;
#X obj 289 506 *~ 0.3;
#X obj 426 270 * 4;
#X obj 464 270 * 8;
#X obj 292 538 hip~ 800;
#X connect 2 0 4 0;
#X connect 3 0 10 0;
#X connect 5 0 12 0;
#X connect 5 0 13 0;
#X connect 6 0 0 0;
#X connect 7 0 6 0;
#X connect 8 0 1 0;
#X connect 8 0 11 0;
#X connect 9 0 8 0;
#X connect 10 0 2 0;
#X connect 11 0 14 0;
#X connect 12 0 7 0;
#X connect 13 0 9 0;
#X connect 14 0 4 0;
#X restore 27 421 pd delay_fx;
#N canvas 1324 503 2034 1585 context_playback 0;
#X obj 62 140 contextplay ionian 1;
#X obj 585 293 hradio 15 1 0 8 empty empty empty 0 -8 0 10 -262144
-1 -1 2;
#X floatatom 549 337 5 0 0 0 - - -;
#X obj 59 79 s restart;
#X obj 61 53 bng 15 250 50 0 empty empty empty 17 7 0 10 -262144 -1
-1;
#X obj 479 188 s contextfadetime;
#X obj 62 168 contextplay dorian 2;
#X obj 329 204 r tick;
#X obj 329 228 mod 8;
#X obj 329 252 sel 0;
#X obj 329 312 spigot 0;
#X msg 386 284 1;
#X obj 331 286 f 1;
#X obj 344 166 t b f;
#X obj 329 336 t f b;
#X msg 359 363 0;
#X obj 63 196 contextplay phrygian 3;
#X msg 479 157 5000;
#X obj 61 222 contextplay lydian 4;
#X obj 61 250 contextplay mixolydian 5;
#X obj 61 278 contextplay aeolian 6;
#X obj 62 308 contextplay locrian 7;
#X obj 345 134 r context;
#X obj 327 449 s contextQuantized;
#X obj 588 317 s context;
#X obj 480 128 loadbang;
#X obj 165 78 s stop;
#X obj 164 49 bng 15 250 50 0 empty empty empty 17 7 0 10 -262144 -1
-1;
#X obj 1487 598 contextselector 7 covid;
#X obj 584 386 r context;
#X floatatom 584 410 5 0 0 0 - - -;
#X obj 328 419 change;
#X obj 1230 599 contextselector 6 lockdown;
#X obj 989 598 contextselector 5 exercise;
#X obj 762 599 contextselector 4 outside;
#X obj 515 600 contextselector 3 strange;
#X obj 268 922 contextselector 2 tired;
#X obj 37 601 contextselector 1 happy;
#X obj 1486 623 contextselector 7 covid19;
#X obj 1487 684 contextselector 7 coronavirus;
#X obj 1487 708 contextselector 7 contageous;
#X obj 1487 733 contextselector 7 ill;
#X obj 1488 757 contextselector 7 sick;
#X obj 1229 624 contextselector 6 isolated;
#X obj 1228 648 contextselector 6 isolation;
#X obj 1229 673 contextselector 6 alone;
#X obj 267 606 contextselector 2 think;
#X obj 267 631 contextselector 2 contemplate;
#X obj 266 655 contextselector 2 reflect;
#X obj 266 679 contextselector 2 reflecting;
#X obj 266 703 contextselector 2 feel;
#X obj 267 729 contextselector 2 reflective;
#X obj 267 755 contextselector 2 introspective;
#X obj 267 783 contextselector 2 introspection;
#X obj 268 808 contextselector 2 ponder;
#X obj 267 836 contextselector 2 meditate;
#X obj 268 897 contextselector 2 exhausted;
#X obj 268 945 contextselector 2 fatigued;
#X obj 990 623 contextselector 5 run;
#X obj 990 650 contextselector 5 walk;
#X obj 991 677 contextselector 5 fitness;
#X obj 762 624 contextselector 4 air;
#X obj 762 650 contextselector 4 breathe;
#X obj 762 677 contextselector 4 sunshine;
#X obj 764 702 contextselector 4 sky;
#X obj 763 730 contextselector 4 blue;
#X obj 1233 724 contextselector 6 sad;
#X obj 1232 749 contextselector 6 afraid;
#X obj 1233 777 contextselector 6 worried;
#X obj 1232 804 contextselector 6 anxious;
#X obj 1231 830 contextselector 6 depressed;
#X obj 1232 856 contextselector 6 stressed;
#X obj 1231 882 contextselector 6 negative;
#X obj 1233 908 contextselector 6 dread;
#X obj 1231 935 contextselector 6 mental;
#X obj 36 625 contextselector 1 ok;
#X obj 35 650 contextselector 1 positive;
#X obj 34 676 contextselector 1 optimistic;
#X obj 35 703 contextselector 1 laugh;
#X obj 35 728 contextselector 1 laughing;
#X obj 37 754 contextselector 1 funny;
#X obj 35 821 contextselector 1 slow;
#X obj 38 849 contextselector 1 calm;
#X obj 39 877 contextselector 1 quiet;
#X obj 517 624 contextselector 3 odd;
#X obj 519 648 contextselector 3 surreal;
#X obj 517 674 contextselector 3 normal;
#X obj 518 697 contextselector 3 normalised;
#X obj 519 723 contextselector 3 normalisation;
#X obj 518 751 contextselector 3 normalize;
#X obj 520 777 contextselector 3 fake;
#X obj 36 954 contextselector 1 online;
#X obj 35 981 contextselector 1 video;
#X obj 38 1008 contextselector 1 zoom;
#X obj 36 1037 contextselector 1 skype;
#X obj 35 1064 contextselector 1 facetime;
#X obj 35 1093 contextselector 1 connection;
#X obj 519 806 contextselector 3 news;
#X obj 521 836 contextselector 3 sensational;
#X obj 519 893 contextselector 3 toiletroll;
#X obj 522 949 contextselector 3 shopping;
#X obj 993 731 contextselector 5 social;
#X obj 993 760 contextselector 5 media;
#X obj 992 789 contextselector 5 pressure;
#X obj 991 818 contextselector 5 likes;
#X obj 995 848 contextselector 5 instagram;
#X obj 994 877 contextselector 5 twitter;
#X obj 990 905 contextselector 5 facebook;
#X obj 992 932 contextselector 5 snapchat;
#X obj 990 960 contextselector 5 whatsapp;
#X obj 521 986 contextselector 3 briefing;
#X obj 523 1017 contextselector 3 boris;
#X obj 523 1042 contextselector 3 cummings;
#X obj 22 1178 contextselector 1 clap;
#X obj 26 1205 contextselector 1 nhs;
#X obj 1488 849 contextselector 7 ventilator;
#X obj 1490 876 contextselector 7 die;
#X obj 1489 903 contextselector 7 death;
#X obj 1490 930 contextselector 7 cough;
#X obj 1489 957 contextselector 7 pneumonia;
#X obj 1484 986 contextselector 7 mask;
#X obj 1487 1015 contextselector 7 wash;
#X obj 1489 1048 contextselector 7 hands;
#X obj 529 1126 contextselector 3 work;
#X obj 531 1150 contextselector 3 unemployed;
#X obj 526 1178 contextselector 3 furlough;
#X obj 532 1208 contextselector 3 money;
#X obj 533 1234 contextselector 3 bank;
#X obj 535 1265 contextselector 3 rent;
#X obj 534 1292 contextselector 3 mortgage;
#X obj 531 1326 contextselector 3 food;
#X obj 269 1004 contextselector 2 disoriented;
#X obj 270 1032 contextselector 2 time;
#X obj 268 1058 contextselector 2 day;
#X obj 267 1087 contextselector 2 night;
#X obj 265 1115 contextselector 2 lost;
#X obj 22 1326 contextselector 1 parents;
#X obj 26 1353 contextselector 1 brother;
#X obj 25 1378 contextselector 1 sister;
#X obj 27 1404 contextselector 1 dad;
#X obj 25 1432 contextselector 1 mum;
#X obj 26 1457 contextselector 1 mom;
#X obj 24 1486 contextselector 1 father;
#X obj 27 1511 contextselector 1 mother;
#X obj 24 1536 contextselector 1 grandparents;
#X obj 23 1564 contextselector 1 grandmother;
#X obj 23 1593 contextselector 1 grandfather;
#X obj 19 1620 contextselector 1 child;
#X obj 24 1647 contextselector 1 son;
#X obj 25 1672 contextselector 1 daughter;
#X obj 771 796 contextselector 4 friend;
#X obj 769 822 contextselector 4 friends;
#X obj 768 863 contextselector 4 hope;
#X obj 768 890 contextselector 4 vaccine;
#X obj 1492 1087 contextselector 7 panic;
#X obj 1481 1118 contextselector 7 stockpile;
#X obj 1481 1150 contextselector 7 herd;
#X obj 1482 1182 contextselector 7 immunity;
#X obj 593 232 loadbang;
#X msg 593 256 2;
#X obj 1483 1213 contextselector 7 doctor;
#X obj 1487 1243 contextselector 7 hospital;
#X obj 1485 653 contextselector 7 covid-19;
#X obj 1489 1280 contextselector 7 distance;
#X obj 1486 1310 contextselector 7 fomite;
#X obj 1487 1344 contextselector 7 pandemic;
#X obj 1487 1373 contextselector 7 outbreak;
#X obj 1488 1400 contextselector 7 contact;
#X obj 1485 1432 contextselector 7 tracing;
#X obj 1484 1461 contextselector 7 spread;
#X obj 1485 1495 contextselector 7 quarantine;
#X obj 1486 1522 contextselector 7 isolate;
#X obj 34 780 contextselector 1 fun;
#X obj 1488 1548 contextselector 7 superspreader;
#X obj 1489 1580 contextselector 7 infectious;
#X obj 1485 1612 contextselector 7 virus;
#X obj 768 927 contextselector 4 hug;
#X connect 1 0 2 0;
#X connect 1 0 24 0;
#X connect 4 0 3 0;
#X connect 7 0 8 0;
#X connect 8 0 9 0;
#X connect 9 0 12 0;
#X connect 10 0 14 0;
#X connect 11 0 10 1;
#X connect 12 0 10 0;
#X connect 13 0 11 0;
#X connect 13 1 12 1;
#X connect 14 0 31 0;
#X connect 14 1 15 0;
#X connect 15 0 10 1;
#X connect 17 0 5 0;
#X connect 22 0 13 0;
#X connect 25 0 17 0;
#X connect 27 0 26 0;
#X connect 29 0 30 0;
#X connect 31 0 23 0;
#X connect 158 0 159 0;
#X connect 159 0 1 0;
#X restore 23 271 pd context_playback;
#X restore 233 616 pd howitworks;
#X text 166 274 By Robert M Thomas and Sam Dudley;
#X text 113 308 During the #composercoffeebreak #mannersmacdade;
#X text 223 405 Robert M Thomas;
#X text 165 430 Instagram : robertthomascomposer;
#X text 242 507 Sam Dudley;
#X text 218 535 Twitter : @smddly;
#X text 173 563 https://www.sdudleymusic.co.uk/;
#X text 184 459 http://robertthomassound.com/;
#N canvas 1394 482 549 326 help 0;
#X text 54 62 Troubleshooting :;
#X text 57 101 - please make sure caps lock is off \, Soliloquy only
recognises words in lower case;
#X restore 252 654 pd help;
#X text 200 331 mentoring scheme may 2020;
