#N canvas 1394 75 576 876 12;
#X declare -path resources/rj;
#X declare -path resources/heavylib;
#X declare -path resources/abs;
#X declare -path resources/stems;
#X obj 31 31 UI;
#N canvas 1082 786 584 533 howitworks 0;
#N canvas 1936 129 936 954 masterout 0;
#X obj 50 661 dac~;
#X obj 50 618 clip~ -1 1;
#X obj 145 618 clip~ -1 1;
#X obj 50 587 hv.tanh;
#X obj 145 588 hv.tanh;
#X obj 49 557 e_scompressor 90 5;
#X obj 48 31 catch~ LEFT;
#X obj 111 65 catch~ RIGHT;
#X obj 50 519 *~;
#X obj 111 519 *~;
#X obj 131 474 line~;
#X msg 131 446 \$1 10;
#X obj 131 419 r volume;
#X obj 238 418 loadbang;
#X msg 238 442 1;
#X msg 286 443 0;
#X obj 289 34 catch~ CONTEXT-LEFT;
#X obj 348 73 catch~ CONTEXT-RIGHT;
#X obj 295 225 *~;
#X obj 341 225 *~;
#X obj 426 174 r context-vol;
#X msg 426 198 \$1 100;
#X obj 426 222 line~;
#X obj 439 320 throw~ REVERB;
#X obj 437 294 *~ 0.2;
#X obj 348 112 *~ 0.9;
#X obj 291 113 *~ 0.9;
#X obj 73 175 catch~ AMBIENTL;
#X obj 135 215 catch~ AMBIENTR;
#X connect 1 0 0 0;
#X connect 2 0 0 1;
#X connect 3 0 1 0;
#X connect 4 0 2 0;
#X connect 5 0 3 0;
#X connect 5 1 4 0;
#X connect 6 0 8 0;
#X connect 7 0 9 0;
#X connect 8 0 5 0;
#X connect 9 0 5 1;
#X connect 10 0 9 1;
#X connect 10 0 8 1;
#X connect 11 0 10 0;
#X connect 12 0 11 0;
#X connect 13 0 14 0;
#X connect 14 0 11 0;
#X connect 15 0 11 0;
#X connect 16 0 26 0;
#X connect 17 0 25 0;
#X connect 18 0 8 0;
#X connect 18 0 24 0;
#X connect 19 0 9 0;
#X connect 19 0 24 0;
#X connect 20 0 21 0;
#X connect 21 0 22 0;
#X connect 22 0 19 1;
#X connect 22 0 18 1;
#X connect 24 0 23 0;
#X connect 25 0 19 0;
#X connect 26 0 18 0;
#X connect 27 0 8 0;
#X connect 28 0 9 0;
#X restore 25 469 pd masterout;
#N canvas 168 246 2395 1606 keyword_playback 0;
#X text 69 37 each one of these plays a sound file when a keyword is
detected.;
#X obj 70 131 wordplay dog dog 1 8;
#X text 67 162 here dog keyword plays the dog sound file at volume
1 quantised to 8 ticks ( 1 beat );
#X obj 1782 584 wordplay lockdown lockdown 1 8;
#X obj 1782 608 wordplay isolated isolated 1 8;
#X obj 1782 632 wordplay isolation isolation 1 8;
#X obj 1782 656 wordplay alone alone 1 8;
#X obj 2083 295 wordplay covid19 covid2 1.5 8;
#X obj 2083 271 wordplay covid covid0 1.5 8;
#X obj 2083 343 wordplay contagious covid4 1.5 8;
#X obj 2083 367 wordplay ill covid5 1.5 8;
#X obj 2083 391 wordplay sick covid6 1 8;
#X obj 2083 319 wordplay coronavirus covid3 2 8;
#X text 2081 241 locrian;
#X text 1783 249 aeolian;
#X text 62 256 ionian;
#X obj 391 312 wordplay disorientated bowedpiano0 1 8;
#X obj 391 336 wordplay time bowedpiano1 1 8;
#X obj 391 360 wordplay day bowedpiano2 1 8;
#X obj 391 384 wordplay lost bowedpiano3 1 8;
#X text 390 272 dorian;
#X obj 391 444 wordplay think contemplate0 1 8;
#X obj 391 468 wordplay contemplate contemplate2 1 8;
#X obj 391 492 wordplay reflect contemplate3 1 8;
#X obj 391 516 wordplay reflecting contemplate4 1 8;
#X obj 391 540 wordplay reflective contemplate5 1 8;
#X obj 391 564 wordplay feel contemplate6 1 8;
#X obj 391 588 wordplay introspective contemplate7 1 8;
#X obj 391 612 wordplay introspection contemplate8 1 8;
#X obj 391 636 wordplay ponder contemplate9 1 8;
#X obj 391 660 wordplay meditate contemplate10 1 8;
#X obj 46 854 wordplay slow celestialportals0 2 8;
#X obj 46 878 wordplay calm celestialportals1 2 8;
#X obj 46 902 wordplay quiet celestialportals2 2 8;
#X text 743 273 phrygian;
#X obj 742 311 wordplay strange danbau0 2 8;
#X obj 743 335 wordplay odd danbau1 2 8;
#X obj 743 359 wordplay surreal danbau2 2 8;
#X obj 742 383 wordplay normal danbau3 2 8;
#X obj 744 497 wordplay sensational danbau0 2 8;
#X obj 740 544 wordplay toiletroll danbau1 2 8;
#X obj 744 592 wordplay shopping danbau4 2 8;
#X obj 744 568 wordplay stockpile danbau3 2 8;
#X obj 744 520 wordplay panic danbau1 2 8;
#X obj 743 455 wordplay fake danbau6 2 8;
#X obj 743 431 wordplay normalisation danbau5 2 8;
#X obj 743 407 wordplay normalised danbau4 2 8;
#X obj 1057 309 wordplay exercise exercise0 2 8;
#X obj 1057 357 wordplay walk exercise2 2.5 8;
#X obj 1057 382 wordplay fitness exercise3 2.5 8;
#X obj 1057 333 wordplay run exercise1 2.5 8;
#X obj 1061 459 wordplay outside exercise4 2.5 8;
#X obj 1061 483 wordplay air exercise5 2.5 8;
#X obj 1057 508 wordplay breathe exercise6 2.5 8;
#X obj 1061 532 wordplay sunshine exercise7 2.5 8;
#X obj 1061 556 wordplay sky exercise3 2.5 8;
#X obj 1061 579 wordplay blue exercise4 2.5 8;
#X text 1057 271 lydian;
#X text 1360 276 mixo;
#X obj 1058 408 wordplay walks exercise2 2.5 8;
#X obj 1777 524 wordplay scared ebowguitar8 1 8;
#X obj 1777 493 wordplay fear ebowguitar7 1 8;
#X obj 1778 452 wordplay dread ebowguitar6 1 8;
#X obj 1779 428 wordplay negative ebowguitar5 1 8;
#X obj 1778 404 wordplay stressed ebowguitar4 1 8;
#X obj 1778 380 wordplay depressed ebowguitar4 1 8;
#X obj 1778 356 wordplay anxious ebowguitar3 1 8;
#X obj 1778 332 wordplay worried ebowguitar2 1 8;
#X obj 1778 308 wordplay afraid ebowguitar1 1 8;
#X obj 1778 284 wordplay sad ebowguitar0 1 8;
#X obj 40 1230 wordplay happy positive0 1 8;
#X obj 40 1254 wordplay ok positive1 1 8;
#X obj 40 1373 wordplay funny positive5 0.5 8;
#X obj 40 1349 wordplay laughing positive5 0.5 8;
#X obj 39 1326 wordplay laugh positive4 0.5 8;
#X obj 40 1302 wordplay optimistic positive3 0.5 8;
#X obj 40 1278 wordplay positive positive2 1 8;
#X obj 37 1034 wordplay online online0 1 8;
#X obj 37 1058 wordplay video online1 1 8;
#X obj 37 1082 wordplay zoom online2 1 8;
#X obj 37 1106 wordplay skype online3 1 8;
#X obj 37 1130 wordplay facetime online4 1 8;
#X obj 37 1154 wordplay connection online5 1 8;
#X obj 1354 709 wordplay friend friends0 1 8;
#X obj 1354 733 wordplay friends friends1 1 8;
#X obj 1354 757 wordplay boyfriend friends2 1 8;
#X obj 1354 781 wordplay girlfriend friends3 1 8;
#X obj 745 632 wordplay news danbau4 2 8;
#X obj 1353 832 wordplay cafe friends3 1 8;
#X obj 1354 861 wordplay restaurant friends3 1 8;
#X obj 747 720 wordplay work money0 1 8;
#X obj 747 841 wordplay rent money0 1 8;
#X obj 747 745 wordplay unemployed money1 1 8;
#X obj 747 769 wordplay furlough money2 1 8;
#X obj 747 793 wordplay money money3 1 8;
#X obj 747 817 wordplay bank money4 1 8;
#X obj 747 865 wordplay mortgage money1 1 8;
#X obj 748 889 wordplay food money2 1 8;
#X obj 37 1520 wordplay health celestialportals0 2 8;
#X obj 38 1544 wordplay nhs celestialportals1 2 8;
#X obj 38 1568 wordplay clapping celestialportals2 2 8;
#X obj 39 1593 wordplay clap celestialportals2 2 8;
#X obj 2079 515 wordplay pneumonia covid4 1 8;
#X obj 2079 539 wordplay cough covid4 1 8;
#X obj 2079 569 wordplay mask covid5 1 8;
#X obj 2082 602 wordplay wash covid5 1 8;
#X obj 2081 626 wordplay hands covid5 1 9;
#X obj 2081 662 wordplay vitamins covid4 1 8;
#X obj 2081 432 wordplay ventilator covid5 1 8;
#X obj 2079 491 wordplay death covid5 2 8;
#X obj 2080 466 wordplay die covid6 2 8;
#X obj 52 313 wordplay parents family0 1.2 8;
#X obj 52 333 wordplay mum family1 1.2 8;
#X obj 52 357 wordplay dad family2 1.2 8;
#X obj 51 381 wordplay family family3 1.2 8;
#X obj 52 405 wordplay mom family4 1.2 8;
#X obj 52 429 wordplay father family5 1.2 8;
#X obj 52 452 wordplay mother family6 1.2 8;
#X obj 51 479 wordplay sister family7 1.2 8;
#X obj 52 501 wordplay brother family8 1.2 8;
#X obj 52 525 wordplay grandparents family10 1.2 8;
#X obj 52 549 wordplay grandmother family10 1.2 8;
#X obj 52 573 wordplay grandfather family10 1.2 8;
#X obj 52 597 wordplay child family9 1.2 8;
#X obj 52 621 wordplay son family9 1.2 8;
#X obj 52 645 wordplay daughter family9 1.2 8;
#X obj 1358 345 wordplay media socials1 2 8;
#X obj 1358 321 wordplay social socials0 2 8;
#X obj 1358 369 wordplay pressure socials2 2 8;
#X obj 1358 393 wordplay likes socials3 2 8;
#X obj 1358 417 wordplay instagram socials4 2 8;
#X obj 1358 441 wordplay twitter socials0 2 8;
#X obj 1358 466 wordplay facebook socials1 2 8;
#X obj 1358 489 wordplay snapchat socials2 2 8;
#X obj 1357 513 wordplay whatsapp socials3 2 8;
#X obj 49 679 wordplay home family9 1.2 8;
#X obj 44 828 wordplay sing celestialportals0 2 8;
#X obj 49 801 wordplay music celestialportals1 2 8;
#X obj 1061 610 wordplay garden exercise4 2.5 8;
#X obj 1057 644 wordplay hope exercise6 2.5 8;
#X obj 1063 670 wordplay tree exercise5 2.5 8;
#X obj 1063 693 wordplay trees exercise5 2.5 8;
#X obj 50 707 wordplay human family9 1.2 8;
#X obj 47 730 wordplay touch family7 1.2 8;
#X obj 45 755 wordplay hug family7 1.2 8;
#X obj 41 1413 wordplay heartbeat positive0 1 8;
#X obj 39 1439 wordplay heart positive0 1 8;
#X obj 2082 694 wordplay scream covid4 1 8;
#X obj 2082 718 wordplay screaming covid4 1 8;
#X obj 38 933 wordplay still family6 1 8;
#X obj 39 966 wordplay stillness family6 1 8;
#X obj 67 203 wordplay cat cat 0.3 8;
#X obj 1049 729 wordplay future celestialportals0 2 8;
#X restore 23 188 pd keyword_playback;
#N canvas 1409 609 637 251 declare_libraries 0;
#X text 229 37 here we load libraries and abstractions we might need
;
#X msg 31 195 \; pd dsp 1;
#X obj 31 167 loadbang;
#X text 117 205 we also turn DSP on so we can hear stuff!;
#X obj 31 34 declare -path resources/rj;
#X obj 31 61 declare -path resources/heavylib;
#X obj 31 88 declare -path resources/abs;
#X obj 32 122 declare -path resources/stems;
#X connect 2 0 1 0;
#X restore 24 28 pd declare_libraries;
#N canvas 939 209 1308 1339 key_input 0;
#X obj 252 1083 s wordlists;
#X text 380 105 there is probably a much better way of doing this!
;
#X text 833 437 collects the numbers for each key pressed;
#X text 405 965 send latest word around the patch;
#X text 854 361 evaluate on space or enter or delete;
#X text 880 385 removes collected delete;
#X obj 210 98 keyname;
#X obj 210 127 sel 1;
#X obj 211 154 symbol;
#X obj 259 124 t a a;
#X obj 249 318 symbol;
#X msg 247 515;
#X obj 249 342 u_collect;
#X obj 393 319 key;
#X obj 393 355 sel 10 32 8;
#X obj 441 384 del 1;
#X obj 250 965 u_listreduce;
#X msg 350 963 \$1\$2;
#X obj 254 1009 list trim;
#X obj 222 187 sel ยง Tab Caps_Lock Shift_L Control_L Alt_L Meta_L
Meta_L Alt_L Control_L Shift_L BackSpace Meta_L Return Space - = [
] \; ' \, . /;
#X text 666 199 ignore these characters;
#X obj 115 1110 print ANALYSED:;
#X obj 397 433 t b b b;
#X obj 666 286 f;
#X obj 711 286 + 1;
#X obj 634 259 t a b;
#X msg 440 462 0;
#X obj 667 314 > 40;
#X obj 667 338 sel 1;
#X connect 6 0 7 0;
#X connect 6 1 9 0;
#X connect 7 0 8 0;
#X connect 8 0 19 0;
#X connect 9 0 8 1;
#X connect 9 1 10 1;
#X connect 10 0 12 0;
#X connect 11 0 16 0;
#X connect 12 0 11 0;
#X connect 13 0 14 0;
#X connect 14 0 22 0;
#X connect 14 1 22 0;
#X connect 14 2 15 0;
#X connect 15 0 12 1;
#X connect 15 0 26 0;
#X connect 16 0 18 0;
#X connect 16 1 17 0;
#X connect 17 0 16 1;
#X connect 18 0 0 0;
#X connect 18 0 21 0;
#X connect 19 24 25 0;
#X connect 22 0 12 1;
#X connect 22 1 11 0;
#X connect 22 2 26 0;
#X connect 23 0 24 0;
#X connect 23 0 27 0;
#X connect 24 0 23 1;
#X connect 25 0 10 0;
#X connect 25 1 23 0;
#X connect 26 0 23 1;
#X connect 27 0 28 0;
#X connect 28 0 22 0;
#X restore 22 58 pd key_input;
#X text 218 28 This code is open source BSD licensed;
#N canvas 852 477 1068 581 timebase 0;
#X obj 187 178 loadbang;
#X msg 274 76 100;
#X obj 273 125 /;
#X msg 274 102 60000 \$1;
#X obj 274 153 / 8;
#X text 367 75 our bpm;
#X obj 273 51 loadbang;
#X obj 187 202 metro 75;
#X obj 272 279 s TIMEBASE-ms;
#X obj 348 166 mod 4;
#X obj 348 188 sel 0;
#X obj 348 144 r tick;
#X text 390 228 sends around a value we can sync delays to etc;
#X obj 186 315 s tick;
#X obj 187 262 f;
#X obj 224 261 + 1;
#X text 245 317 sends around a tick we can sync events to;
#X obj 275 249 f;
#X obj 187 73 r restart;
#X obj 187 97 t b b;
#X msg 218 124 0;
#X msg 87 102 stop;
#X obj 87 78 r stopmetro;
#X connect 0 0 7 0;
#X connect 1 0 3 0;
#X connect 2 0 4 0;
#X connect 3 0 2 0;
#X connect 4 0 7 1;
#X connect 4 0 17 1;
#X connect 6 0 1 0;
#X connect 7 0 14 0;
#X connect 9 0 10 0;
#X connect 10 0 17 0;
#X connect 11 0 9 0;
#X connect 14 0 15 0;
#X connect 14 0 13 0;
#X connect 15 0 14 1;
#X connect 17 0 8 0;
#X connect 18 0 19 0;
#X connect 19 0 7 0;
#X connect 19 1 20 0;
#X connect 20 0 14 1;
#X connect 21 0 7 0;
#X connect 22 0 21 0;
#X restore 24 140 pd timebase;
#N canvas 951 311 1798 1424 keystroke_melodies 0;
#X obj 1010 523 key;
#X obj 240 1117 throw~ LEFT;
#X obj 291 1151 throw~ RIGHT;
#X obj 96 191 r tick;
#X obj 95 240 sel 0;
#X obj 238 467 spigot 0;
#X msg 303 442 1;
#X obj 395 263 t f b;
#X obj 236 426 f;
#X obj 238 491 t f b;
#X msg 323 489 0;
#X obj 544 1059 throw~ REVERB;
#X text 519 224 all input is in the scale of G major and its relative
modes;
#X obj 706 1056 throw~ DELAY;
#X obj 238 1077 e_chorus;
#X obj 312 1012 loadbang;
#X obj 557 742 s modindex;
#X obj 560 679 loadbang;
#X obj 237 785 hv.tanh;
#X obj 236 816 e_mcompressor 90 5;
#X obj 243 755 hv.filter notch 640 1;
#X obj 543 1026 *~ 0.1;
#X msg 1013 95 49 50 51 52 53 54 55 56 57 48;
#X msg 987 128 113 119 101 114 116 121 117 105 111 112;
#X msg 999 154 97 115 100 102 103 104 106 107 108;
#X msg 1016 185 122 120 99 118 98 110 109 0 0;
#X obj 1010 553 sel 113 119 101 114 116 121 117 105 111 112;
#X obj 1011 628 s note;
#X obj 1067 630 s note;
#X obj 394 34 r note;
#X obj 1124 629 s note;
#X obj 1180 629 s note;
#X obj 1235 628 s note;
#X obj 1291 631 s note;
#X obj 1354 627 s note;
#X obj 1415 631 s note;
#X obj 1479 627 s note;
#X obj 1541 627 s note;
#X obj 998 840 key;
#X msg 999 921 0;
#X obj 999 945 s note;
#X obj 1055 947 s note;
#X msg 1055 923 1;
#X obj 1112 946 s note;
#X msg 1112 922 2;
#X obj 1168 946 s note;
#X msg 1168 922 3;
#X obj 1223 945 s note;
#X msg 1223 921 4;
#X obj 1279 948 s note;
#X msg 1279 924 5;
#X obj 1342 944 s note;
#X msg 1342 920 6;
#X obj 999 870 sel 122 120 99 118 98 110 109;
#X obj 999 788 s note;
#X obj 1055 790 s note;
#X obj 1112 789 s note;
#X obj 1168 789 s note;
#X obj 1223 788 s note;
#X obj 1279 791 s note;
#X obj 1342 787 s note;
#X obj 1403 791 s note;
#X obj 1467 787 s note;
#X obj 1011 689 sel 97 115 100 102 103 104 106 107 108;
#X obj 1010 665 key;
#X msg 999 764 7;
#X msg 1055 766 8;
#X msg 1112 765 9;
#X msg 1168 765 10;
#X msg 1223 764 11;
#X msg 1279 767 12;
#X msg 1342 764 13;
#X msg 1403 767 14;
#X msg 1467 763 15;
#X obj 394 226 m_majorscale 55;
#X msg 1011 604 16;
#X msg 1067 606 17;
#X msg 1124 605 18;
#X msg 1180 605 19;
#X msg 1235 604 20;
#X msg 1291 607 21;
#X msg 1354 603 22;
#X msg 1415 607 23;
#X msg 1479 603 24;
#X msg 1541 603 25;
#X obj 1009 332 key;
#X obj 1008 445 s note;
#X obj 1064 447 s note;
#X obj 1121 446 s note;
#X obj 1177 446 s note;
#X obj 1232 445 s note;
#X obj 1288 448 s note;
#X obj 1351 444 s note;
#X obj 1412 448 s note;
#X obj 1476 444 s note;
#X obj 1538 444 s note;
#X obj 1009 362 sel 49 50 51 52 53 54 55 56 57 48;
#X obj 96 215 mod 2;
#X text 147 213 typing quantized to 16th notes;
#X obj 569 85 u_wrandom;
#X obj 626 32 loadbang;
#X msg 651 139 1;
#X obj 573 171 s synthvol;
#X obj 295 554 r synthvol;
#X msg 628 57 1 3 5;
#X obj 569 109 sel 0 1 2;
#X msg 1538 420 -1;
#X msg 1476 420 -2;
#X msg 1412 424 -3;
#X msg 1351 420 -4;
#X msg 1288 424 -5;
#X msg 1232 421 -6;
#X msg 1177 422 -7;
#X msg 1120 422 -8;
#X msg 1064 423 -9;
#X msg 1008 421 -10;
#X obj 237 724 hv.filter highpass 150 1;
#X obj 237 875 *~ 1.2;
#X obj 394 59 t f b;
#X obj 242 586 pack f f;
#X obj 400 185 - 10;
#X obj 704 1025 *~ 0.3;
#X obj 237 685 *~ 1;
#X msg 571 137 0.2;
#X msg 607 139 0.5;
#X obj 683 743 s vibratospeed;
#X obj 822 744 s vibratoamount;
#X obj 820 684 loadbang;
#X msg 312 1040 freq 0.1 \, mod 8;
#X msg 820 712 3;
#X msg 685 714 5;
#X obj 687 684 loadbang;
#X obj 555 579 s noiselevel;
#X obj 239 633 u_robinpoly 15 fmsynthvoice;
#X obj 560 519 loadbang;
#X msg 557 548 0.1;
#X msg 559 708 500;
#X connect 0 0 26 0;
#X connect 3 0 97 0;
#X connect 4 0 8 0;
#X connect 5 0 9 0;
#X connect 6 0 5 1;
#X connect 7 0 8 1;
#X connect 7 1 6 0;
#X connect 8 0 5 0;
#X connect 9 0 119 0;
#X connect 9 1 10 0;
#X connect 10 0 5 1;
#X connect 14 0 1 0;
#X connect 14 1 2 0;
#X connect 15 0 128 0;
#X connect 17 0 136 0;
#X connect 18 0 19 0;
#X connect 19 0 117 0;
#X connect 20 0 18 0;
#X connect 21 0 11 0;
#X connect 26 0 75 0;
#X connect 26 1 76 0;
#X connect 26 2 77 0;
#X connect 26 3 78 0;
#X connect 26 4 79 0;
#X connect 26 5 80 0;
#X connect 26 6 81 0;
#X connect 26 7 82 0;
#X connect 26 8 83 0;
#X connect 26 9 84 0;
#X connect 29 0 118 0;
#X connect 38 0 53 0;
#X connect 39 0 40 0;
#X connect 42 0 41 0;
#X connect 44 0 43 0;
#X connect 46 0 45 0;
#X connect 48 0 47 0;
#X connect 50 0 49 0;
#X connect 52 0 51 0;
#X connect 53 0 39 0;
#X connect 53 1 42 0;
#X connect 53 2 44 0;
#X connect 53 3 46 0;
#X connect 53 4 48 0;
#X connect 53 5 50 0;
#X connect 53 6 52 0;
#X connect 63 0 65 0;
#X connect 63 1 66 0;
#X connect 63 2 67 0;
#X connect 63 3 68 0;
#X connect 63 4 69 0;
#X connect 63 5 70 0;
#X connect 63 6 71 0;
#X connect 63 7 72 0;
#X connect 63 8 73 0;
#X connect 64 0 63 0;
#X connect 65 0 54 0;
#X connect 66 0 55 0;
#X connect 67 0 56 0;
#X connect 68 0 57 0;
#X connect 69 0 58 0;
#X connect 70 0 59 0;
#X connect 71 0 60 0;
#X connect 72 0 61 0;
#X connect 73 0 62 0;
#X connect 74 0 7 0;
#X connect 75 0 27 0;
#X connect 76 0 28 0;
#X connect 77 0 30 0;
#X connect 78 0 31 0;
#X connect 79 0 32 0;
#X connect 80 0 33 0;
#X connect 81 0 34 0;
#X connect 82 0 35 0;
#X connect 83 0 36 0;
#X connect 84 0 37 0;
#X connect 85 0 96 0;
#X connect 96 0 115 0;
#X connect 96 1 114 0;
#X connect 96 2 113 0;
#X connect 96 3 112 0;
#X connect 96 4 111 0;
#X connect 96 5 110 0;
#X connect 96 6 109 0;
#X connect 96 7 108 0;
#X connect 96 8 107 0;
#X connect 96 9 106 0;
#X connect 97 0 4 0;
#X connect 99 0 105 0;
#X connect 100 0 104 0;
#X connect 101 0 102 0;
#X connect 103 0 119 1;
#X connect 104 0 99 1;
#X connect 105 0 123 0;
#X connect 105 1 124 0;
#X connect 105 2 101 0;
#X connect 106 0 95 0;
#X connect 107 0 94 0;
#X connect 108 0 93 0;
#X connect 109 0 92 0;
#X connect 110 0 91 0;
#X connect 111 0 90 0;
#X connect 112 0 89 0;
#X connect 113 0 88 0;
#X connect 114 0 87 0;
#X connect 115 0 86 0;
#X connect 116 0 20 0;
#X connect 117 0 14 0;
#X connect 117 0 21 0;
#X connect 117 0 121 0;
#X connect 118 0 120 0;
#X connect 118 1 99 0;
#X connect 119 0 133 0;
#X connect 120 0 74 0;
#X connect 121 0 13 0;
#X connect 122 0 116 0;
#X connect 123 0 102 0;
#X connect 124 0 102 0;
#X connect 127 0 129 0;
#X connect 128 0 14 1;
#X connect 129 0 126 0;
#X connect 130 0 125 0;
#X connect 131 0 130 0;
#X connect 133 0 122 0;
#X connect 134 0 135 0;
#X connect 135 0 132 0;
#X connect 136 0 16 0;
#X restore 23 230 pd keystroke_melodies;
#X text 217 54 Aside from some rjlib components which are GPL;
#N canvas 806 211 1163 873 platereverb_fx 0;
#X obj 86 15 catch~ REVERB;
#N canvas 15 98 781 670 presets 0;
#X obj -1 30 inlet;
#X obj -1 68 route default large large_noexcursion huge huge_noexcursion
tadada;
#X obj -1 587 s \$0-GUI;
#X msg -1 134 predelay 0 \, bandwidth 22050 \, damping 22050 \, decay
0.5 \, input_diffusion1 0.75 \, input_diffusion2 0.625 \, decay_diffusion1
0.7 \, decay_diffusion2 0.5 \, excursion 0.53761 \;;
#X msg 135 274 predelay 0 \, bandwidth 10000 \, damping 4637 \, decay
0.98 \, input_diffusion1 0.685 \, input_diffusion2 0.779 \, decay_diffusion1
0.74 \, decay_diffusion2 0.68 \, excursion 0 \,;
#X msg 67 197 predelay 0 \, bandwidth 10000 \, damping 4637 \, decay
0.98 \, input_diffusion1 0.685 \, input_diffusion2 0.779 \, decay_diffusion1
0.74 \, decay_diffusion2 0.68 \, excursion 0.53761 \,;
#X msg 206 350 predelay 10 \, bandwidth 10000 \, damping 4637 \, decay
0.99 \, input_diffusion1 0.685 \, input_diffusion2 0.779 \, decay_diffusion1
0.889 \, decay_diffusion2 0.84 \, excursion 0.53761 \;;
#X msg 340 525 predelay 216.535 \, bandwidth 22050 \, damping 22050
\, decay 0.677165 \, input_diffusion1 0.850394 \, input_diffusion2
0.92126 \, decay_diffusion1 0.80315 \, decay_diffusion2 0.818898 \,
excursion 0.11811 \;;
#X msg 272 437 predelay 10 \, bandwidth 10000 \, damping 4637 \, decay
0.99 \, input_diffusion1 0.685 \, input_diffusion2 0.779 \, decay_diffusion1
0.889 \, decay_diffusion2 0.84 \, excursion 0 \;;
#X connect 0 0 1 0;
#X connect 1 0 3 0;
#X connect 1 1 5 0;
#X connect 1 2 4 0;
#X connect 1 3 6 0;
#X connect 1 4 8 0;
#X connect 1 5 7 0;
#X connect 3 0 2 0;
#X connect 4 0 2 0;
#X connect 5 0 2 0;
#X connect 6 0 2 0;
#X connect 7 0 2 0;
#X connect 8 0 2 0;
#X restore 465 225 pd presets;
#X msg 465 83 default;
#X msg 466 150 huge;
#X msg 465 175 huge_noexcursion;
#X msg 589 105 large;
#X msg 465 129 large_noexcursion;
#X msg 465 198 tadada;
#X obj 259 245 hsl 128 15 0 1 0 0 empty empty empty -2 -8 0 10 -262144
-1 -1 4191 1;
#X msg 256 264 dry \$1;
#X obj 85 301 e_platereverb somename;
#X obj 256 189 loadbang;
#X msg 256 220 0.33;
#X msg 278 292 save;
#X obj 236 335 u_cocollect;
#X msg 236 365 dry 0.33 \, decay_diffusion2 0.68 \, decay_diffusion1
0.74 \, input_diffusion2 0.779 \, excursion 0.53761 \, input_diffusion1
0.685 \, decay 0.98 \, damping 4637 \, bandwidth 10000 \, predelay
0 \,;
#X obj 278 312 t a b;
#X text 461 57 Presets;
#X obj 236 165 r \$0-CTL;
#N canvas 0 22 622 572 Parameter 0;
#X obj 201 466 s \$0-CTL;
#X text 251 5 GUI;
#X text 385 6 No-GUI;
#X obj 201 105 g_hsl predelay 0 250;
#X obj 201 145 g_hsl bandwidth 220.05 22050;
#X obj 201 185 g_hsl damping 220.5 22050;
#X obj 201 225 g_hsl decay 0 1;
#X obj 201 428 g_hsl excursion 0 5;
#X msg 369 432 excursion \$1;
#X msg 369 110 predelay \$1;
#X msg 369 149 bandwidth \$1;
#X msg 369 190 damping \$1;
#X msg 369 229 decay \$1;
#X msg 369 272 input_diffusion1 \$1;
#X msg 369 302 input_diffusion2 \$1;
#X msg 369 352 decay_diffusion1 \$1;
#X msg 369 381 decay_diffusion2 \$1;
#X obj 201 268 g_hsl input_diffusion1 0 1;
#X obj 201 298 g_hsl input_diffusion2 0 1;
#X obj 201 348 g_hsl decay_diffusion1 0 1;
#X obj 201 378 g_hsl decay_diffusion2 0 1;
#X text 81 288 Input Diffusion;
#X text 151 230 Decay;
#X text 137 191 Damping;
#X text 47 150 Bandwidth (frequency);
#X text 134 109 Predelay;
#X text 81 367 Decay Diffusion;
#X text 123 433 Excursion;
#X obj 201 29 r \$0-GUI;
#X obj 201 61 g_hsl dry 0 1;
#X text 111 66 Wet/Dry Mix;
#X msg 369 66 dry \$1;
#X connect 3 0 4 0;
#X connect 4 0 5 0;
#X connect 5 0 6 0;
#X connect 6 0 17 0;
#X connect 7 0 0 0;
#X connect 17 0 18 0;
#X connect 18 0 19 0;
#X connect 19 0 20 0;
#X connect 20 0 7 0;
#X connect 28 0 29 0;
#X connect 29 0 3 0;
#X restore 466 17 pd Parameter Controls;
#X obj 80 530 throw~ LEFT;
#X obj 193 531 throw~ RIGHT;
#X obj 85 117 *~ 0.5;
#X obj 591 78 loadbang;
#X obj 85 47 hip~ 500;
#X obj 85 75 hip~ 500;
#X obj 408 574 e_reverb;
#X connect 0 0 24 0;
#X connect 2 0 1 0;
#X connect 3 0 1 0;
#X connect 4 0 1 0;
#X connect 5 0 1 0;
#X connect 6 0 1 0;
#X connect 7 0 1 0;
#X connect 8 0 9 0;
#X connect 9 0 10 2;
#X connect 10 0 20 0;
#X connect 10 1 21 0;
#X connect 10 2 14 0;
#X connect 11 0 12 0;
#X connect 12 0 8 0;
#X connect 13 0 16 0;
#X connect 14 0 15 0;
#X connect 16 0 10 2;
#X connect 16 1 14 1;
#X connect 18 0 10 2;
#X connect 22 0 10 0;
#X connect 22 0 10 1;
#X connect 23 0 5 0;
#X connect 24 0 25 0;
#X connect 25 0 22 0;
#X restore 27 393 pd platereverb_fx;
#N canvas 1128 174 1163 873 delay_fx 0;
#X obj 79 657 throw~ LEFT;
#X obj 192 658 throw~ RIGHT;
#X obj 85 117 *~ 0.5;
#X obj 85 69 catch~ DELAY;
#X obj 86 276 delwrite~ del 5000;
#X obj 425 207 r TIMEBASE-ms;
#X obj 84 430 vd~ del;
#X obj 85 402 sig~;
#X obj 197 431 vd~ del;
#X obj 198 403 sig~;
#X obj 85 93 hip~ 400;
#X obj 289 506 *~ 0.3;
#X obj 426 270 * 4;
#X obj 464 270 * 8;
#X obj 292 538 hip~ 800;
#X connect 2 0 4 0;
#X connect 3 0 10 0;
#X connect 5 0 12 0;
#X connect 5 0 13 0;
#X connect 6 0 0 0;
#X connect 7 0 6 0;
#X connect 8 0 1 0;
#X connect 8 0 11 0;
#X connect 9 0 8 0;
#X connect 10 0 2 0;
#X connect 11 0 14 0;
#X connect 12 0 7 0;
#X connect 13 0 9 0;
#X connect 14 0 4 0;
#X restore 27 421 pd delay_fx;
#N canvas 1845 53 1995 1613 context_playback 0;
#X obj 585 293 hradio 15 1 0 8 empty empty empty 0 -8 0 10 -262144
-1 -1 2;
#X floatatom 549 337 5 0 0 0 - - -;
#X obj 59 79 s restart;
#X obj 61 53 bng 15 250 50 0 empty empty empty 17 7 0 10 -262144 -1
-1;
#X obj 479 178 s contextfadetime;
#X obj 329 204 r tick;
#X obj 329 228 mod 8;
#X obj 329 252 sel 0;
#X obj 329 312 spigot 0;
#X msg 386 284 1;
#X obj 331 286 f 1;
#X obj 344 166 t b f;
#X obj 329 336 t f b;
#X msg 359 363 0;
#X obj 345 134 r context;
#X obj 327 449 s contextQuantized;
#X obj 588 317 s context;
#X obj 165 78 s stop;
#X obj 164 49 bng 15 250 50 0 empty empty empty 17 7 0 10 -262144 -1
-1;
#X obj 1487 598 contextselector 7 covid;
#X obj 584 386 r context;
#X floatatom 584 410 5 0 0 0 - - -;
#X obj 328 419 change;
#X obj 1230 599 contextselector 6 lockdown;
#X obj 762 599 contextselector 4 outside;
#X obj 515 600 contextselector 3 strange;
#X obj 268 922 contextselector 2 tired;
#X obj 1486 623 contextselector 7 covid19;
#X obj 1487 684 contextselector 7 coronavirus;
#X obj 1487 708 contextselector 7 contageous;
#X obj 1487 733 contextselector 7 ill;
#X obj 1488 757 contextselector 7 sick;
#X obj 1229 624 contextselector 6 isolated;
#X obj 1228 648 contextselector 6 isolation;
#X obj 1229 673 contextselector 6 alone;
#X obj 267 606 contextselector 2 think;
#X obj 267 631 contextselector 2 contemplate;
#X obj 266 655 contextselector 2 reflect;
#X obj 266 679 contextselector 2 reflecting;
#X obj 266 703 contextselector 2 feel;
#X obj 267 729 contextselector 2 reflective;
#X obj 267 755 contextselector 2 introspective;
#X obj 267 783 contextselector 2 introspection;
#X obj 268 808 contextselector 2 ponder;
#X obj 267 836 contextselector 2 meditate;
#X obj 268 897 contextselector 2 exhausted;
#X obj 268 945 contextselector 2 fatigued;
#X obj 762 624 contextselector 4 air;
#X obj 762 650 contextselector 4 breathe;
#X obj 762 677 contextselector 4 sunshine;
#X obj 764 702 contextselector 4 sky;
#X obj 763 730 contextselector 4 blue;
#X obj 1233 724 contextselector 6 sad;
#X obj 1232 749 contextselector 6 afraid;
#X obj 1233 777 contextselector 6 worried;
#X obj 1232 804 contextselector 6 anxious;
#X obj 1231 830 contextselector 6 depressed;
#X obj 1232 856 contextselector 6 stressed;
#X obj 1231 882 contextselector 6 negative;
#X obj 1233 908 contextselector 6 dread;
#X obj 1231 935 contextselector 6 mental;
#X obj 36 625 contextselector 1 ok;
#X obj 35 650 contextselector 1 positive;
#X obj 34 676 contextselector 1 optimistic;
#X obj 35 703 contextselector 1 laugh;
#X obj 35 728 contextselector 1 laughing;
#X obj 37 754 contextselector 1 funny;
#X obj 32 807 contextselector 1 slow;
#X obj 35 835 contextselector 1 calm;
#X obj 36 863 contextselector 1 quiet;
#X obj 517 624 contextselector 3 odd;
#X obj 519 648 contextselector 3 surreal;
#X obj 517 674 contextselector 3 normal;
#X obj 518 697 contextselector 3 normalised;
#X obj 519 723 contextselector 3 normalisation;
#X obj 518 751 contextselector 3 normalize;
#X obj 520 777 contextselector 3 fake;
#X obj 35 984 contextselector 1 online;
#X obj 34 1011 contextselector 1 video;
#X obj 37 1038 contextselector 1 zoom;
#X obj 35 1067 contextselector 1 skype;
#X obj 34 1094 contextselector 1 facetime;
#X obj 34 1123 contextselector 1 connection;
#X obj 519 806 contextselector 3 news;
#X obj 521 836 contextselector 3 sensational;
#X obj 519 893 contextselector 3 toiletroll;
#X obj 522 949 contextselector 3 shopping;
#X obj 991 597 contextselector 5 social;
#X obj 991 626 contextselector 5 media;
#X obj 990 655 contextselector 5 pressure;
#X obj 989 684 contextselector 5 likes;
#X obj 993 714 contextselector 5 instagram;
#X obj 992 743 contextselector 5 twitter;
#X obj 988 771 contextselector 5 facebook;
#X obj 990 798 contextselector 5 snapchat;
#X obj 988 826 contextselector 5 whatsapp;
#X obj 521 986 contextselector 3 briefing;
#X obj 523 1017 contextselector 3 boris;
#X obj 523 1042 contextselector 3 cummings;
#X obj 21 1208 contextselector 1 clap;
#X obj 25 1235 contextselector 1 nhs;
#X obj 1488 849 contextselector 7 ventilator;
#X obj 1490 876 contextselector 7 die;
#X obj 1489 903 contextselector 7 death;
#X obj 1490 930 contextselector 7 cough;
#X obj 1489 957 contextselector 7 pneumonia;
#X obj 1484 986 contextselector 7 mask;
#X obj 1487 1015 contextselector 7 wash;
#X obj 1489 1048 contextselector 7 hands;
#X obj 529 1126 contextselector 3 work;
#X obj 531 1150 contextselector 3 unemployed;
#X obj 526 1178 contextselector 3 furlough;
#X obj 532 1208 contextselector 3 money;
#X obj 533 1234 contextselector 3 bank;
#X obj 535 1265 contextselector 3 rent;
#X obj 534 1292 contextselector 3 mortgage;
#X obj 531 1326 contextselector 3 food;
#X obj 269 1004 contextselector 2 disoriented;
#X obj 270 1032 contextselector 2 time;
#X obj 268 1058 contextselector 2 day;
#X obj 267 1087 contextselector 2 night;
#X obj 265 1115 contextselector 2 lost;
#X obj 22 1422 contextselector 1 parents;
#X obj 26 1449 contextselector 1 brother;
#X obj 25 1474 contextselector 1 sister;
#X obj 27 1500 contextselector 1 dad;
#X obj 25 1528 contextselector 1 mum;
#X obj 26 1553 contextselector 1 mom;
#X obj 24 1582 contextselector 1 father;
#X obj 27 1607 contextselector 1 mother;
#X obj 24 1632 contextselector 1 grandparents;
#X obj 23 1660 contextselector 1 grandmother;
#X obj 23 1689 contextselector 1 grandfather;
#X obj 19 1716 contextselector 1 child;
#X obj 24 1743 contextselector 1 son;
#X obj 25 1768 contextselector 1 daughter;
#X obj 765 997 contextselector 4 friend;
#X obj 763 1023 contextselector 4 friends;
#X obj 762 1064 contextselector 4 hope;
#X obj 762 1091 contextselector 4 vaccine;
#X obj 1492 1087 contextselector 7 panic;
#X obj 1481 1118 contextselector 7 stockpile;
#X obj 1481 1150 contextselector 7 herd;
#X obj 1482 1182 contextselector 7 immunity;
#X obj 593 232 loadbang;
#X msg 593 256 2;
#X obj 1483 1213 contextselector 7 doctor;
#X obj 1487 1243 contextselector 7 hospital;
#X obj 1485 653 contextselector 7 covid-19;
#X obj 1489 1280 contextselector 7 distance;
#X obj 1486 1310 contextselector 7 fomite;
#X obj 1487 1344 contextselector 7 pandemic;
#X obj 1487 1373 contextselector 7 outbreak;
#X obj 1488 1400 contextselector 7 contact;
#X obj 1485 1432 contextselector 7 tracing;
#X obj 1484 1461 contextselector 7 spread;
#X obj 1485 1495 contextselector 7 quarantine;
#X obj 1486 1522 contextselector 7 isolate;
#X obj 34 780 contextselector 1 fun;
#X obj 1488 1548 contextselector 7 superspreader;
#X obj 1489 1580 contextselector 7 infectious;
#X obj 1485 1612 contextselector 7 virus;
#X obj 758 807 contextselector 4 exercise;
#X obj 761 833 contextselector 4 run;
#X obj 761 860 contextselector 4 walk;
#X obj 762 887 contextselector 4 fitness;
#X obj 479 104 r TIMEBASE-ms;
#X obj 479 128 * 32;
#X obj 21 1395 contextselector 1 family;
#X obj 479 152 * 2;
#X obj 1230 968 contextselector 6 scared;
#X obj 1229 997 contextselector 6 fear;
#X obj 62 140 contextplay ionian 1 1;
#X obj 62 168 contextplay dorian 2 1;
#X obj 61 222 contextplay lydian 4 1;
#X obj 61 250 contextplay mixolydian 5 1;
#X obj 61 278 contextplay aeolian 6 1;
#X obj 63 196 contextplay phrygian 3 0.8;
#X obj 62 308 contextplay locrian 7 0.8;
#X obj 766 756 contextselector 4 hope;
#X obj 762 781 contextselector 4 garden;
#X obj 24 1159 contextselector 1 music;
#X obj 27 1183 contextselector 1 sing;
#X obj 32 953 contextselector 1 home;
#X obj 769 912 contextselector 4 tree;
#X obj 762 938 contextselector 4 trees;
#X obj 23 1265 contextselector 1 human;
#X obj 21 1292 contextselector 1 hug;
#X obj 26 1320 contextselector 1 touch;
#X obj 29 1346 contextselector 1 heartbeat;
#X obj 25 1371 contextselector 1 heart;
#X obj 1490 782 contextselector 7 scream;
#X obj 1490 809 contextselector 7 screaming;
#X obj 766 1120 contextselector 4 nature;
#X obj 35 602 contextselector 1 happy;
#X obj 30 889 contextselector 1 still;
#X obj 33 914 contextselector 1 stillness;
#X obj 766 1156 contextselector 4 future;
#X connect 0 0 1 0;
#X connect 0 0 16 0;
#X connect 3 0 2 0;
#X connect 5 0 6 0;
#X connect 6 0 7 0;
#X connect 7 0 10 0;
#X connect 8 0 12 0;
#X connect 9 0 8 1;
#X connect 10 0 8 0;
#X connect 11 0 9 0;
#X connect 11 1 10 1;
#X connect 12 0 22 0;
#X connect 12 1 13 0;
#X connect 13 0 8 1;
#X connect 14 0 11 0;
#X connect 18 0 17 0;
#X connect 20 0 21 0;
#X connect 22 0 15 0;
#X connect 144 0 145 0;
#X connect 145 0 0 0;
#X connect 166 0 167 0;
#X connect 167 0 169 0;
#X connect 169 0 4 0;
#X restore 23 271 pd context_playback;
#N canvas 1972 1265 516 605 user_activity 0;
#X obj 35 21 r note;
#X obj 28 332 line;
#X obj 31 129 t b b b;
#X obj 28 356 s context-vol;
#X msg 153 197 stop;
#X obj 301 370 s ambient-vol;
#X obj 299 289 r context-vol;
#X obj 298 341 -;
#X msg 298 314 1 \$1;
#X msg 153 257 0 20000;
#X obj 153 233 del 10000;
#X msg 28 253 1 5000;
#X connect 0 0 2 0;
#X connect 1 0 3 0;
#X connect 2 0 11 0;
#X connect 2 1 10 0;
#X connect 2 2 4 0;
#X connect 4 0 10 0;
#X connect 6 0 8 0;
#X connect 7 0 5 0;
#X connect 8 0 7 0;
#X connect 9 0 1 0;
#X connect 10 0 9 0;
#X connect 11 0 1 0;
#X restore 21 93 pd user_activity;
#N canvas 1237 1088 1104 795 ambience_playback 0;
#X obj 56 28 loadbang;
#X msg 61 264 1;
#X obj 62 747 throw~ AMBIENTL;
#X obj 200 747 throw~ AMBIENTR;
#X obj 295 517 r ambient-vol;
#X obj 61 664 *~;
#X obj 297 582 line~;
#X msg 295 541 \$1 10;
#X obj 193 664 *~;
#X msg 361 273 1;
#X obj 379 746 throw~ REVERB;
#X obj 192 604 *~ 3;
#X obj 60 605 *~ 3;
#X obj 60 164 t b b b;
#X obj 360 173 t b b b;
#X obj 360 353 readsf~ 2;
#X obj 60 344 readsf~ 2;
#X obj 124 195 del 270000;
#X obj 441 198 del 270000;
#X obj 453 526 loadbang;
#X msg 453 550 1 5000;
#X msg 106 262 open resources/stems/ambient.wav;
#X msg 406 270 open resources/stems/ambient.wav;
#X connect 0 0 13 0;
#X connect 1 0 16 0;
#X connect 4 0 7 0;
#X connect 5 0 2 0;
#X connect 5 0 10 0;
#X connect 6 0 5 1;
#X connect 6 0 8 1;
#X connect 7 0 6 0;
#X connect 8 0 3 0;
#X connect 8 0 10 0;
#X connect 9 0 15 0;
#X connect 11 0 8 0;
#X connect 12 0 5 0;
#X connect 13 0 1 0;
#X connect 13 1 21 0;
#X connect 13 2 17 0;
#X connect 14 0 9 0;
#X connect 14 1 22 0;
#X connect 14 2 18 0;
#X connect 15 0 12 0;
#X connect 15 1 11 0;
#X connect 16 0 12 0;
#X connect 16 1 11 0;
#X connect 17 0 14 0;
#X connect 18 0 13 0;
#X connect 19 0 20 0;
#X connect 20 0 6 0;
#X connect 21 0 16 0;
#X connect 22 0 15 0;
#X restore 23 316 pd ambience_playback;
#X restore 236 750 pd howitworks;
#X text 176 393 By Robert M Thomas and Sam Dudley;
#X text 229 514 Robert M Thomas;
#X text 170 544 Instagram : robertthomascomposer;
#X text 247 622 Sam Dudley;
#X text 223 649 Twitter : @smddly;
#X text 178 675 https://www.sdudleymusic.co.uk/;
#X text 189 573 http://robertthomassound.com/;
#N canvas 1394 482 549 326 help 0;
#X text 54 62 Troubleshooting :;
#X text 57 101 - please make sure caps lock is off \, Soliloquy only
recognises words in lower case;
#X restore 255 786 pd help;
#X text 207 453 mentoring scheme may 2020;
#N canvas 1394 482 549 326 credits 0;
#X text 52 222 Features a recording of the 2020 lockdown UK "clap for
carers" 2nd April 2020 by "naturenotesuk" from Freesound https://freesound.org/people/naturenotesuk/sounds/511659/
;
#X text 54 54 Music and code copyright 2020 Robert M Thomas and Sam
Dudley;
#X text 52 95 Code License: Open Source BSD;
#X text 51 172 HeavyLib copyright Enzien Audio Ltd 2014 See included
license;
#X text 51 128 RjLib copyright Reality Jockey Ltd 2008 See included
license;
#X restore 212 825 pd credits and license;
#X text 123 424 During the #composercoffeebreak #mannersmcdade;
