#N canvas 211 114 935 743 10;
#X obj 116 115 vu 15 120 empty empty -1 -8 0 10 -66577 -1 1 0;
#X obj 168 116 vu 15 120 empty empty -1 -8 0 10 -66577 -1 1 0;
#X obj 171 -38 - 100;
#X obj 171 -80 inlet~;
#X obj 104 -38 - 100;
#X obj 104 -80 inlet~;
#X obj 359 -94 inlet reset;
#X floatatom 114 258 5 0 0 2 max - -, f 5;
#X floatatom 167 257 5 0 0 2 max - -, f 5;
#X obj 231 70 u_range;
#X obj 167 277 tgl 15 0 empty empty clip! 17 7 0 10 -262144 -1 -1 0
1;
#X obj 114 277 tgl 15 0 empty empty clip! 17 7 0 10 -262144 -1 -1 0
1;
#X obj 276 115 >= 0;
#X obj 250 92 t f f;
#X msg 354 51 0;
#X obj 359 -73 t b b b;
#X obj 62 117 >= 0;
#X obj 36 94 t f f;
#X obj 18 70 u_range;
#X obj 206 256 bng 15 250 50 0 empty empty empty 17 7 0 10 -262144
-1 -1;
#X obj 171 -60 env~ 32;
#X obj 104 -59 env~ 32;
#X connect 2 0 1 0;
#X connect 2 0 9 0;
#X connect 3 0 20 0;
#X connect 4 0 0 0;
#X connect 4 0 18 0;
#X connect 5 0 21 0;
#X connect 6 0 15 0;
#X connect 9 1 13 0;
#X connect 12 0 10 0;
#X connect 13 0 8 0;
#X connect 13 1 12 0;
#X connect 14 0 11 0;
#X connect 14 0 10 0;
#X connect 15 0 14 0;
#X connect 15 1 9 1;
#X connect 15 2 18 1;
#X connect 16 0 11 0;
#X connect 17 0 7 0;
#X connect 17 1 16 0;
#X connect 18 1 17 0;
#X connect 19 0 15 0;
#X connect 20 0 2 0;
#X connect 21 0 4 0;
#X coords 0 -1 1 1 125 200 2 100 100;
