#N canvas 1399 607 578 891 12;
#X obj 104 123 r wordlists;
#X obj 104 178 t b;
#X obj 104 229 s context;
#X obj 104 154 route \$2;
#X obj 104 202 \$1;
#X connect 0 0 3 0;
#X connect 1 0 4 0;
#X connect 3 0 1 0;
#X connect 4 0 2 0;
