#N canvas 1375 211 954 1049 12;
#X obj 303 856 r contextfadetime;
#X obj 114 589 readsf~ 2;
#X obj 106 -1 r tick;
#X obj 116 971 *~;
#X obj 230 907 line~;
#X obj 149 971 *~;
#X msg 112 428 1;
#X obj 146 470 symbol \$1;
#X obj 229 855 == \$2;
#X obj 231 883 pack f 5000;
#X obj 229 797 r contextQuantized;
#X msg 591 384 0;
#X obj 591 261 r stop;
#X obj 591 285 t b b b;
#X msg 640 313 stop;
#X obj 590 351 del 1000;
#X msg 618 416 0 1000;
#X obj 318 583 readsf~ 2;
#X msg 328 430 1;
#X obj 355 471 symbol \$1;
#X obj 186 154 f;
#X obj 220 154 + 1;
#X obj 186 178 mod 2;
#X obj 105 203 list prepend;
#X obj 105 229 list trim;
#X obj 105 272 route 0 1;
#X obj 106 51 sel 0;
#X obj 106 75 t b b;
#X obj 106 107 symbol \$1;
#X obj 147 445 loadbang;
#X obj 109 350 t b b;
#X obj 292 354 t b b;
#X obj 106 27 mod 992;
#X obj 115 1028 throw~ CONTEXT-LEFT;
#X obj 148 1054 throw~ CONTEXT-RIGHT;
#X obj 112 694 *~ 0.8;
#X obj 170 693 *~ 0.8;
#X msg 147 496 open ../stems/\$1.wav;
#X msg 356 497 open ../stems/\$1.wav;
#X obj 117 770 *~;
#X obj 164 770 *~;
#X obj 252 717 clip 0 1;
#X obj 252 693 \$3;
#X obj 253 666 loadbang;
#X connect 0 0 9 1;
#X connect 1 0 35 0;
#X connect 1 1 36 0;
#X connect 2 0 32 0;
#X connect 3 0 33 0;
#X connect 4 0 3 1;
#X connect 4 0 5 1;
#X connect 5 0 34 0;
#X connect 6 0 1 0;
#X connect 7 0 37 0;
#X connect 8 0 9 0;
#X connect 9 0 4 0;
#X connect 10 0 8 0;
#X connect 11 0 1 0;
#X connect 11 0 17 0;
#X connect 12 0 13 0;
#X connect 13 0 15 0;
#X connect 13 1 16 0;
#X connect 13 2 14 0;
#X connect 14 0 15 0;
#X connect 15 0 11 0;
#X connect 16 0 4 0;
#X connect 17 0 35 0;
#X connect 17 1 36 0;
#X connect 18 0 17 0;
#X connect 19 0 38 0;
#X connect 20 0 21 0;
#X connect 20 0 22 0;
#X connect 21 0 20 1;
#X connect 22 0 23 1;
#X connect 23 0 24 0;
#X connect 24 0 25 0;
#X connect 25 0 30 0;
#X connect 25 1 31 0;
#X connect 26 0 27 0;
#X connect 27 0 28 0;
#X connect 27 1 20 0;
#X connect 28 0 23 0;
#X connect 29 0 7 0;
#X connect 30 0 19 0;
#X connect 30 1 6 0;
#X connect 31 0 7 0;
#X connect 31 1 18 0;
#X connect 32 0 26 0;
#X connect 35 0 39 0;
#X connect 36 0 40 0;
#X connect 37 0 1 0;
#X connect 38 0 17 0;
#X connect 39 0 3 0;
#X connect 40 0 5 0;
#X connect 41 0 40 1;
#X connect 41 0 39 1;
#X connect 42 0 41 0;
#X connect 43 0 42 0;
