#N canvas 1037 322 1593 1496 12;
#X obj 197 732 osc~;
#X obj 197 541 +~;
#X obj 293 312 osc~;
#X obj 197 283 sig~;
#X obj 198 228 mtof;
#X obj 202 1066 *~;
#X text 336 273 modulator frequency;
#X text 346 486 modulator index;
#X text 50 267 carrier frequency;
#X obj 286 517 *~;
#X obj 558 481 c_ead 20 400;
#X obj 293 269 * 12;
#X obj 228 970 c_ead 5 2000;
#X obj 200 1 inlet;
#X text 664 480 modulator envelope;
#X obj 202 1264 outlet~;
#X obj 194 667 +~;
#X text 291 647 vibrato;
#X obj 342 343 r modindex;
#X obj 671 416 random 200;
#X obj 671 440 + 200;
#X obj 577 415 random 20;
#X obj 577 441 + 10;
#X obj 557 378 t b b b;
#X obj 231 860 t b b;
#X obj 273 886 t b b;
#X obj 273 913 random 10;
#X obj 273 939 + 2;
#X obj 367 914 random 1000;
#X obj 686 626 noise~;
#X obj 683 784 *~;
#X obj 930 684 t b b;
#X obj 930 711 random 10;
#X obj 930 737 + 2;
#X obj 885 768 c_ead 5 200;
#X obj 1026 707 random 100;
#X obj 888 658 t b b b;
#X obj 1149 696 random 300;
#X obj 1149 720 + 1000;
#X obj 1024 736 + 20;
#X obj 339 431 +;
#X obj 291 97 s \$0-hit;
#X obj 552 345 r \$0-hit;
#X obj 888 624 r \$0-hit;
#X obj 230 836 r \$0-hit;
#X text 683 588 mallet noise;
#X obj 430 356 r \$0-hit;
#X obj 430 404 t b f;
#X obj 342 367 f 200;
#X obj 430 380 random 300;
#X obj 367 938 + 2000;
#X obj 287 487 *~ 200;
#X obj 199 68 t f f f b b b;
#X obj 196 782 *~ 0.1;
#X obj 683 665 bp~ 800 2;
#X obj 232 615 osc~ 5;
#X obj 231 639 *~ 2;
#X obj 645 57 s \$0-vol;
#X obj 233 1111 r \$0-vol;
#X msg 233 1135 \$1 10;
#X obj 233 1159 line~;
#X obj 208 1186 *~;
#X obj 199 32 unpack f f;
#X obj 350 1266 outlet~;
#X obj 812 12 inlet;
#X obj 684 700 *~ 0.1;
#X obj 311 616 r vibratoamount;
#X obj 251 581 r vibratospeed;
#X obj 745 699 r noiselevel;
#X connect 0 0 53 0;
#X connect 1 0 16 0;
#X connect 2 0 51 0;
#X connect 3 0 1 0;
#X connect 4 0 3 0;
#X connect 5 0 61 0;
#X connect 9 0 1 1;
#X connect 10 0 9 1;
#X connect 11 0 2 0;
#X connect 12 0 5 1;
#X connect 13 0 62 0;
#X connect 16 0 0 0;
#X connect 18 0 48 0;
#X connect 19 0 20 0;
#X connect 20 0 10 2;
#X connect 21 0 22 0;
#X connect 22 0 10 1;
#X connect 23 0 10 0;
#X connect 23 1 21 0;
#X connect 23 2 19 0;
#X connect 24 0 12 0;
#X connect 24 1 25 0;
#X connect 25 0 26 0;
#X connect 25 1 28 0;
#X connect 26 0 27 0;
#X connect 27 0 12 1;
#X connect 28 0 50 0;
#X connect 29 0 54 0;
#X connect 30 0 5 0;
#X connect 31 0 32 0;
#X connect 31 1 35 0;
#X connect 32 0 33 0;
#X connect 33 0 34 1;
#X connect 34 0 30 1;
#X connect 35 0 39 0;
#X connect 36 0 34 0;
#X connect 36 1 31 0;
#X connect 36 2 37 0;
#X connect 37 0 38 0;
#X connect 38 0 54 1;
#X connect 39 0 34 2;
#X connect 40 0 51 1;
#X connect 42 0 23 0;
#X connect 43 0 36 0;
#X connect 44 0 24 0;
#X connect 46 0 49 0;
#X connect 47 0 48 0;
#X connect 47 1 40 1;
#X connect 48 0 40 0;
#X connect 49 0 47 0;
#X connect 50 0 12 2;
#X connect 51 0 9 0;
#X connect 52 0 4 0;
#X connect 52 1 11 0;
#X connect 52 5 41 0;
#X connect 53 0 5 0;
#X connect 54 0 65 0;
#X connect 55 0 56 0;
#X connect 56 0 16 1;
#X connect 58 0 59 0;
#X connect 59 0 60 0;
#X connect 60 0 61 1;
#X connect 61 0 15 0;
#X connect 61 0 63 0;
#X connect 62 0 52 0;
#X connect 62 1 57 0;
#X connect 65 0 30 0;
#X connect 66 0 56 1;
#X connect 67 0 55 0;
#X connect 68 0 65 1;
