#N canvas 1397 1070 882 987 12;
#X obj 44 57 inlet;
#X obj 46 141 u_listdrip;
#X msg 43 215 d;
#X msg 98 215 o;
#X msg 153 217 g;
#X obj 42 449 u_show;
#X msg 42 473 d symbol g;
#X msg 119 77 100 111 103;
#X obj 47 179 sel 100 111 103;
#X obj 52 315 u_collect;
#X msg 192 431 d o g;
#X obj 145 290 bng 15 250 50 0 empty empty empty 17 7 0 10 -262144
-1 -1;
#X msg 333 485 \$1\$2\$3;
#X obj 223 394 bng 15 250 50 0 empty empty empty 17 7 0 10 -262144
-1 -1;
#X obj 333 551 print;
#X msg 333 421 d o g;
#X connect 0 0 1 0;
#X connect 1 0 8 0;
#X connect 2 0 9 0;
#X connect 3 0 9 0;
#X connect 4 0 9 0;
#X connect 5 0 6 0;
#X connect 7 0 1 0;
#X connect 8 0 2 0;
#X connect 8 1 3 0;
#X connect 8 2 4 0;
#X connect 9 0 10 0;
#X connect 11 0 9 1;
#X connect 12 0 14 0;
#X connect 13 0 10 0;
#X connect 15 0 12 0;
