#N canvas 1446 979 1101 697 12;
#X symbolatom 149 223 58 0 0 0 - - -;
#X text 148 146 Type about your thoughts \, emotions \, hopes and fears
during lockdown into the box...;
#X obj 622 140 loadbang;
#X obj 621 190 symbol;
#X msg 622 164 ...;
#X obj 608 42 key;
#X obj 608 90 t b;
#X obj 608 66 route 10 32 8;
#X symbolatom 305 314 25 0 0 0 - - -;
#X obj 622 281 r recognised;
#X msg 698 211 ...;
#X obj 697 235 symbol;
#X obj 700 181 loadbang;
#X text 217 313 recognised:;
#X text 222 368 please make sure caps lock is off!;
#X connect 2 0 4 0;
#X connect 3 0 0 0;
#X connect 4 0 3 0;
#X connect 5 0 7 0;
#X connect 6 0 4 0;
#X connect 7 0 6 0;
#X connect 7 1 6 0;
#X connect 7 2 6 0;
#X connect 9 0 8 0;
#X connect 10 0 11 0;
#X connect 11 0 8 0;
#X connect 12 0 10 0;
#X coords 0 -1 1 1 500 300 2 100 100;
